<svg xmlns="http://www.w3.org/2000/svg" xmlns:xlink="http://www.w3.org/1999/xlink" width="700" zoomAndPan="magnify" viewBox="0 0 525 525.000007" height="700" preserveAspectRatio="xMidYMid meet" version="1.0"><defs><clipPath id="6867a7258c"><path d="M 0.5 0 L 524.5 0 L 524.5 524 L 0.5 524 Z M 0.5 0 " clip-rule="nonzero"/></clipPath><clipPath id="2f152a6cdb"><path d="M 20 3.089844 L 496 3.089844 L 496 518 L 20 518 Z M 20 3.089844 " clip-rule="nonzero"/></clipPath><clipPath id="5859adb6b1"><path d="M 40 215 L 509.058594 215 L 509.058594 441.863281 L 40 441.863281 Z M 40 215 " clip-rule="nonzero"/></clipPath><clipPath id="ba063b1529"><path d="M 16.0625 41 L 509 41 L 509 521.101562 L 16.0625 521.101562 Z M 16.0625 41 " clip-rule="nonzero"/></clipPath></defs><g clip-path="url(#6867a7258c)"><path fill="#ffffff" d="M 0.5 0 L 524.5 0 L 524.5 531.488281 L 0.5 531.488281 Z M 0.5 0 " fill-opacity="1" fill-rule="nonzero"/><path fill="#ffffff" d="M 0.5 0 L 524.5 0 L 524.5 524 L 0.5 524 Z M 0.5 0 " fill-opacity="1" fill-rule="nonzero"/><path fill="#ffffff" d="M 0.5 0 L 524.5 0 L 524.5 524 L 0.5 524 Z M 0.5 0 " fill-opacity="1" fill-rule="nonzero"/></g><g clip-path="url(#2f152a6cdb)"><path fill="#19304d" d="M 410.011719 454.765625 C 404.828125 458.679688 399.152344 461.027344 392.984375 461.804688 C 395.46875 459.527344 397.835938 456.867188 400.085938 453.839844 C 402.847656 450.101562 405.480469 445.652344 407.984375 440.5 C 410.050781 435.984375 411.316406 433.421875 411.78125 432.816406 L 412.039062 433.550781 C 411.492188 436.28125 410.976562 439.625 410.484375 443.570312 C 410.078125 447.195312 409.882812 449.679688 409.882812 451.035156 C 409.882812 452.386719 409.921875 453.636719 410.011719 454.765625 Z M 208.5 431.003906 C 212.230469 430.203125 215.894531 429.335938 219.484375 428.414062 L 219.613281 432.777344 C 217.285156 433.382812 214.902344 433.96875 212.472656 434.546875 C 211.164062 434.839844 209.882812 435.136719 208.628906 435.429688 Z M 238.6875 452.652344 C 238.617188 452.921875 238.535156 453.207031 238.453125 453.496094 C 238.59375 453.542969 238.738281 453.585938 238.882812 453.625 C 237.289062 456.355469 235.332031 459.667969 233.011719 463.554688 C 230.167969 468.332031 228.09375 470.617188 226.800781 470.414062 C 225.976562 470.308594 224.320312 469.855469 221.816406 469.054688 C 221.984375 468.917969 222.148438 468.765625 222.3125 468.601562 C 223.40625 467.507812 223.9375 466.230469 223.910156 464.757812 C 223.9375 463.296875 223.40625 462.03125 222.3125 460.960938 C 222.078125 460.722656 221.832031 460.507812 221.578125 460.316406 C 227.605469 458.449219 233.308594 455.894531 238.6875 452.652344 Z M 385.96875 259.023438 C 386.976562 259.398438 387.984375 259.757812 388.988281 260.105469 L 385.839844 268.132812 L 383.789062 268.132812 C 382.210938 267.464844 380.621094 266.785156 379.023438 266.105469 C 375.628906 264.691406 372.332031 263.140625 369.136719 261.441406 C 367.648438 260.660156 366.140625 259.960938 364.605469 259.347656 L 385.96875 259.28125 Z M 337.242188 21.042969 L 171.769531 21.042969 L 170.128906 66.886719 L 170.128906 79.253906 C 166.300781 83.023438 162.308594 86.503906 158.152344 89.703125 L 160.769531 20.355469 C 159.84375 19.890625 158.964844 19.246094 158.136719 18.410156 C 156.378906 16.652344 155.503906 14.539062 155.503906 12.066406 C 155.503906 9.589844 156.378906 7.472656 158.136719 5.71875 C 159.890625 3.964844 162.003906 3.085938 164.476562 3.085938 L 342.769531 3.085938 C 345.269531 3.085938 347.386719 3.964844 349.113281 5.71875 C 350.863281 7.472656 351.742188 9.589844 351.742188 12.066406 C 351.742188 14.539062 350.863281 16.652344 349.113281 18.410156 C 347.386719 20.164062 345.269531 21.042969 342.769531 21.042969 Z M 74.0625 121.257812 C 68.207031 123.511719 63.378906 127.257812 59.558594 132.5 C 50.320312 145.105469 43.691406 155.78125 39.664062 164.53125 C 35.875 172.78125 33.125 180.191406 31.394531 186.765625 C 29.769531 185.710938 28.324219 184.632812 27.058594 183.527344 C 24.671875 181.398438 22.527344 177.988281 20.628906 173.292969 C 30.039062 160.316406 40.914062 141.175781 53.257812 115.882812 C 58.675781 104.71875 64.015625 93.109375 69.265625 81.046875 C 72.027344 74.738281 74.757812 68.304688 77.46875 61.753906 C 78.164062 60.089844 78.8125 58.503906 79.433594 57.003906 C 80.746094 53.816406 81.886719 50.980469 82.863281 48.5 C 82.6875 48.433594 82.53125 48.375 82.390625 48.324219 C 83.617188 48.71875 84.871094 49.222656 86.144531 49.832031 C 87.152344 50.355469 88.257812 50.757812 89.46875 51.042969 C 94.90625 51.90625 100.125 50.8125 105.132812 47.765625 C 109.191406 45.230469 113.566406 44.28125 118.253906 44.914062 C 119.984375 45.089844 120.988281 46.050781 121.277344 47.804688 C 122.570312 55.902344 119.304688 61.667969 111.480469 65.097656 C 111.289062 65.175781 111.105469 65.253906 110.914062 65.332031 C 106.171875 67.320312 101.867188 69.925781 98.011719 73.144531 C 97.007812 74.035156 96.34375 75.089844 96.027344 76.296875 C 95.335938 79.089844 94.390625 81.492188 93.179688 83.507812 C 92.402344 83.132812 91.769531 82.488281 91.28125 81.5625 C 90.675781 80.5 89.96875 79.378906 89.164062 78.199219 C 88.328125 76.988281 87.265625 76.023438 85.96875 75.300781 C 85.308594 74.988281 84.632812 74.902344 83.941406 75.042969 C 82.21875 75.738281 81.210938 77.160156 80.921875 79.316406 C 81.292969 79.949219 81.8125 80.570312 82.476562 81.175781 C 87.226562 85.378906 90.574219 90.484375 92.53125 96.5 C 93.566406 99.722656 93.238281 102.859375 91.539062 105.910156 C 88.722656 110.773438 84.476562 114.09375 78.808594 115.882812 C 77.949219 116.175781 77.242188 116.609375 76.695312 117.175781 C 76.679688 117.191406 76.667969 117.203125 76.648438 117.21875 C 76.578125 117.300781 76.503906 117.390625 76.433594 117.480469 C 75.417969 118.703125 74.628906 119.957031 74.0625 121.257812 Z M 108.265625 442.121094 C 109.320312 442.324219 110.625 442.878906 112.167969 443.78125 C 115.453125 446.117188 117.910156 447.820312 119.546875 448.875 C 120.65625 449.597656 121.390625 450.03125 121.75 450.171875 C 128.800781 452.042969 133.835938 453.511719 136.855469 454.574219 C 139.53125 455.492188 141.671875 456.40625 143.285156 457.316406 L 145.011719 460.640625 C 144.925781 460.828125 144.835938 461.023438 144.753906 461.222656 C 144.324219 461.621094 143.660156 461.824219 142.769531 461.824219 C 138.339844 461.824219 133.101562 461.292969 127.058594 460.226562 C 119.351562 458.847656 114.316406 457.050781 111.953125 454.832031 C 112.757812 456.789062 112.960938 458.519531 112.554688 460.015625 L 112.296875 460.617188 C 111.984375 460.933594 111.363281 461.089844 110.445312 461.089844 C 108.253906 461.089844 106.65625 458.558594 105.65625 453.496094 L 104.789062 445.855469 C 104.789062 442.929688 105.945312 441.6875 108.265625 442.121094 Z M 183.683594 494.523438 C 186.703125 491.359375 190.949219 490.03125 196.417969 490.535156 C 204.1875 491.078125 211.882812 491.121094 219.507812 490.664062 C 225.378906 490.316406 231.101562 491.007812 236.683594 492.738281 C 241.488281 494.261719 243.660156 497.554688 243.203125 502.621094 C 243.113281 503.539062 242.78125 504.40625 242.210938 505.210938 C 241.75 505.890625 241.261719 506.523438 240.738281 507.109375 C 237.773438 510.460938 233.800781 512.261719 228.828125 512.503906 C 215.710938 512.820312 202.644531 512.675781 189.640625 512.070312 C 184.34375 511.785156 181.050781 509.226562 179.757812 504.390625 C 179.613281 502.777344 179.859375 501.183594 180.492188 499.597656 C 181.332031 497.574219 182.398438 495.886719 183.683594 494.523438 Z M 218.925781 409.09375 C 215.394531 410.277344 211.742188 411.445312 207.960938 412.617188 L 203.796875 268.695312 L 203.234375 268.695312 C 179.613281 259.3125 166.878906 240.449219 165.039062 212.101562 C 164.953125 210.808594 164.851562 209.554688 164.734375 208.347656 L 156.0625 439.726562 C 155.972656 441.195312 155.371094 442.472656 154.25 443.570312 C 153.15625 444.570312 151.832031 445.03125 150.277344 444.945312 C 149.769531 444.917969 149.289062 444.835938 148.832031 444.691406 L 145.078125 437.480469 L 157.421875 109.082031 C 160.839844 106.214844 164.144531 103.15625 167.328125 99.90625 C 168.269531 98.957031 169.203125 98.019531 170.128906 97.105469 L 170.128906 105.519531 C 170.503906 138.847656 171.742188 172.117188 173.84375 205.324219 C 175.597656 232.664062 187.839844 250.796875 210.570312 259.71875 L 334.828125 259.414062 C 332.125 261.5625 330.039062 264.652344 328.570312 268.695312 C 327.734375 271.082031 327.214844 273.585938 327.011719 276.207031 C 326.496094 281.445312 327.15625 286.738281 329 292.09375 C 329.664062 294.046875 329.503906 295.964844 328.527344 297.835938 C 327.058594 300.640625 325.125 302.992188 322.722656 304.890625 L 321.664062 268.394531 L 263.011719 268.5625 L 261.910156 297.660156 C 259.113281 296.683594 255.527344 297.074219 251.140625 298.824219 C 250.996094 298.882812 250.84375 298.945312 250.6875 299 L 251.832031 268.5625 L 214.847656 268.695312 L 215.792969 301.199219 C 214.582031 300.714844 213.402344 300.15625 212.253906 299.515625 C 209.867188 303.714844 209.722656 308.035156 211.824219 312.464844 C 213.191406 313.539062 214.652344 314.488281 216.203125 315.316406 C 221.515625 318.195312 227.851562 319.632812 235.214844 319.632812 C 238.523438 319.664062 242.9375 318.625 248.46875 316.523438 C 249.015625 316.316406 249.546875 316.113281 250.0625 315.921875 C 254.824219 314.195312 258.429688 313.332031 260.898438 313.332031 C 261.039062 313.332031 261.183594 313.332031 261.328125 313.332031 C 264.242188 313.449219 266.703125 315.042969 268.707031 318.121094 C 269.109375 318.726562 269.511719 319.242188 269.914062 319.671875 L 270.519531 325.027344 C 270.921875 336.65625 269.367188 344.640625 265.859375 348.988281 C 265.570312 348.871094 265.253906 348.753906 264.90625 348.640625 C 262.683594 347.75 261.074219 347.074219 260.074219 346.613281 C 259.554688 346.386719 259.191406 346.210938 258.996094 346.09375 C 258.421875 345.71875 258.035156 344.65625 257.832031 342.898438 C 257.660156 341.085938 258.089844 339.5625 259.128906 338.324219 C 259.796875 337.480469 260.25 336.546875 260.484375 335.519531 C 260.605469 335.011719 260.671875 334.476562 260.679688 333.921875 C 260.671875 333.511719 260.644531 333.113281 260.59375 332.734375 C 260.441406 331.589844 260.078125 330.597656 259.515625 329.777344 C 258.734375 328.65625 257.441406 328.152344 255.632812 328.265625 C 252.695312 328.757812 251.386719 330.28125 251.699219 332.839844 C 251.882812 334.648438 251.082031 335.871094 249.308594 336.511719 C 248.757812 336.710938 248.117188 336.855469 247.386719 336.941406 C 245.917969 337.144531 244.925781 337.160156 244.40625 336.984375 C 244.210938 336.726562 244.078125 336.609375 244.019531 336.636719 C 242.636719 333.097656 240.292969 330.742188 236.984375 329.558594 C 235.664062 329.042969 232.46875 328.511719 227.40625 327.960938 C 225.765625 327.851562 224.28125 327.558594 222.957031 327.101562 C 220.441406 325.058594 218.230469 322.746094 216.332031 320.148438 Z M 341.128906 327.015625 C 336.679688 327.171875 332.851562 328.058594 329.644531 329.671875 C 326.898438 331.058594 324.601562 332.980469 322.761719 335.433594 C 319.238281 336.707031 316.5 339.484375 314.542969 343.761719 C 313.589844 345.78125 312.773438 348.796875 312.078125 352.832031 C 311.738281 355.070312 311.277344 358.179688 310.699219 362.152344 C 310.671875 365.636719 309.996094 371.589844 308.671875 380.023438 C 308.355469 382.035156 308.074219 383.917969 307.832031 385.660156 C 305.308594 385.769531 302.296875 385.027344 298.785156 383.4375 C 294.269531 378.136719 291.453125 372.019531 290.328125 365.085938 C 289.292969 358.554688 289.953125 352.226562 292.316406 346.09375 C 294.847656 339.589844 298.875 334.066406 304.398438 329.519531 C 309.261719 325.488281 314.222656 321.515625 319.289062 317.605469 C 320.617188 316.558594 321.851562 315.582031 323 314.671875 C 325.492188 312.6875 327.5625 311.019531 329.214844 309.664062 C 330.878906 308.277344 332.40625 306.707031 333.789062 304.953125 C 334.40625 304.15625 334.996094 303.320312 335.558594 302.449219 C 337.3125 299.632812 338.035156 294.78125 337.71875 287.902344 C 337.375 281.027344 338.164062 275.90625 340.09375 272.539062 C 341.316406 270.414062 342.949219 268.972656 344.988281 268.222656 C 346.203125 267.773438 347.5625 267.574219 349.066406 267.617188 C 350.347656 267.761719 351.617188 267.953125 352.863281 268.199219 C 353.613281 268.347656 354.351562 268.511719 355.089844 268.695312 C 357.757812 269.359375 360.367188 270.25 362.925781 271.375 C 370.3125 274.492188 377.902344 276.519531 385.710938 277.457031 C 390.0625 277.984375 394.476562 278.171875 398.960938 278.019531 C 398.445312 278.683594 397.867188 279.355469 397.234375 280.050781 C 394.976562 283.265625 391.699219 285.175781 387.414062 285.789062 C 386.035156 285.980469 384.546875 286.035156 382.949219 285.960938 C 377.796875 285.789062 372.792969 286.351562 367.925781 287.644531 C 366.660156 288.019531 365.613281 288.691406 364.777344 289.671875 C 362.996094 291.863281 361.125 293.644531 359.167969 295.027344 C 358.648438 294.304688 358.347656 293.429688 358.261719 292.394531 C 358.175781 291.1875 358.015625 289.875 357.789062 288.464844 C 357.558594 287.058594 356.996094 285.730469 356.101562 284.492188 C 355.644531 283.949219 355.082031 283.589844 354.421875 283.414062 C 352.117188 281.949219 350.578125 282.8125 349.800781 286.003906 C 349.890625 286.753906 350.347656 292.164062 351.183594 302.234375 C 351.378906 304.625 351.332031 306.914062 351.054688 309.097656 C 350.191406 316.125 346.9375 322.097656 341.300781 327.015625 C 341.242188 327.015625 341.183594 327.015625 341.128906 327.015625 Z M 475.027344 515.550781 C 473.714844 514.941406 472.167969 514.324219 470.390625 513.710938 C 468.5 513.046875 465.855469 512.230469 462.449219 511.253906 C 462.011719 510.957031 461.617188 510.65625 461.28125 510.347656 C 461.378906 510.566406 461.464844 510.78125 461.539062 510.996094 C 459.578125 510.4375 457.375 509.835938 454.9375 509.179688 C 454.925781 509.109375 454.910156 509.039062 454.894531 508.96875 L 454.164062 502.296875 L 454.035156 501.195312 C 454.035156 498.464844 455.015625 497.164062 456.988281 497.289062 C 458.164062 497.371094 459.679688 497.957031 461.539062 499.039062 C 467.152344 503.0625 470.417969 505.238281 471.335938 505.554688 C 472.042969 505.742188 472.726562 505.933594 473.386719 506.117188 C 479.515625 507.773438 483.988281 509.101562 486.792969 510.089844 C 491.363281 511.667969 494.414062 513.226562 495.941406 514.75 C 495.507812 515.410156 495.132812 516.117188 494.820312 516.863281 C 494.382812 517.296875 493.710938 517.511719 492.792969 517.511719 C 488.273438 517.511719 482.921875 516.964844 476.730469 515.875 C 476.148438 515.761719 475.582031 515.65625 475.027344 515.550781 Z M 420.347656 396.75 L 436.53125 389.328125 C 436.632812 389.332031 436.734375 389.339844 436.832031 389.351562 C 441 389.734375 444.125 391.644531 446.21875 395.089844 C 447.660156 397.421875 449.066406 400.945312 450.449219 405.664062 C 451.4375 409.34375 453.402344 416.542969 456.339844 427.246094 C 457.476562 431.390625 458.753906 436.050781 460.179688 441.234375 C 463.289062 440.941406 466.539062 440.699219 469.914062 440.523438 C 470.117188 440.519531 470.320312 440.511719 470.519531 440.5 C 470.691406 441.734375 470.792969 443.75 470.820312 446.542969 C 469.785156 446.886719 468.777344 447.246094 467.796875 447.625 C 465.789062 448.390625 464.019531 449.101562 462.492188 449.765625 C 463.175781 452.332031 463.808594 454.734375 464.390625 456.96875 C 467.785156 469.976562 469.484375 477.351562 469.484375 479.089844 C 469.484375 479.230469 467.898438 480.113281 464.734375 481.746094 C 463.820312 482.222656 462.769531 482.761719 461.585938 483.367188 C 458.570312 484.882812 456.378906 485.964844 455.027344 486.601562 C 454.015625 487.09375 453.46875 487.335938 453.382812 487.335938 C 452.847656 487.335938 452.066406 486.703125 451.03125 485.4375 C 449.90625 480.09375 447.417969 470.28125 443.585938 455.996094 C 443.542969 455.84375 443.503906 455.6875 443.457031 455.523438 C 442.375 451.59375 441.359375 447.914062 440.417969 444.496094 C 436.007812 428.460938 433.160156 418.0625 431.890625 413.304688 C 430.453125 408.382812 428.984375 404.703125 427.488281 402.253906 C 425.785156 399.429688 423.40625 397.597656 420.347656 396.75 Z M 436.121094 67.796875 C 430.507812 65.171875 427.707031 60.3125 427.707031 53.203125 C 427.707031 50.382812 429.433594 48.097656 432.882812 46.339844 C 433.285156 46.539062 433.707031 46.769531 434.136719 47.027344 C 439.085938 49.90625 442.835938 52.09375 445.402344 53.589844 C 450.0625 56.238281 454.148438 58.25 457.660156 59.632812 C 466.261719 63.03125 475.742188 65.695312 486.097656 67.621094 L 486.058594 71.675781 C 484.960938 83.847656 482.300781 91.980469 478.070312 96.070312 C 477.8125 95.921875 477.511719 95.765625 477.164062 95.59375 C 473.796875 93.75 471.84375 92.613281 471.292969 92.183594 C 470.75 91.753906 470.492188 90.585938 470.519531 88.6875 C 470.546875 86.789062 471.164062 85.261719 472.375 84.113281 C 473.613281 82.902344 474.34375 81.433594 474.574219 79.707031 C 474.804688 77.953125 474.589844 76.457031 473.925781 75.21875 C 473.265625 73.949219 471.988281 73.261719 470.089844 73.144531 C 466.953125 73.289062 465.382812 74.703125 465.382812 77.378906 C 465.328125 79.910156 463.65625 81.175781 460.375 81.175781 C 458.796875 81.175781 457.742188 81.046875 457.226562 80.785156 C 457.054688 80.527344 456.9375 80.398438 456.878906 80.398438 C 455.90625 76.511719 453.773438 73.75 450.492188 72.109375 C 449.140625 71.417969 445.859375 70.46875 440.652344 69.261719 C 438.984375 68.886719 437.476562 68.394531 436.121094 67.796875 " fill-opacity="1" fill-rule="evenodd"/></g><path fill="#edf2fb" d="M 278.070312 156.460938 L 262.878906 156.460938 L 262.878906 209.46875 L 278.070312 209.46875 Z M 192.054688 166.515625 C 192.34375 163.667969 193.554688 162.113281 195.683594 161.855469 L 234.570312 161.425781 C 236.871094 161.507812 238.066406 162.9375 238.148438 165.695312 L 238.148438 192.203125 C 237.605469 191.277344 237.011719 190.316406 236.378906 189.3125 C 232.414062 182.691406 229.230469 180.433594 226.839844 182.535156 C 225.75 183.453125 224.242188 185.066406 222.3125 187.367188 C 220.179688 189.753906 218.839844 191.367188 218.296875 192.203125 L 215.277344 194.964844 C 214.355469 194.246094 213.664062 193.597656 213.207031 193.019531 C 211.160156 189.625 209.867188 187.699219 209.316406 187.238281 C 209.0625 186.863281 208.601562 186.820312 207.941406 187.105469 C 207.683594 187.480469 206.949219 188.128906 205.738281 189.050781 C 204.355469 190.433594 201.40625 194.101562 196.890625 200.0625 C 195.25 202.363281 193.824219 204.347656 192.617188 206.015625 L 192.054688 206.015625 Z M 194.429688 158.789062 C 192.761719 158.789062 191.421875 159.207031 190.417969 160.042969 C 189.496094 160.964844 189.035156 162.304688 189.035156 164.058594 L 189.035156 204.070312 C 189.035156 207.582031 190.832031 209.339844 194.429688 209.339844 L 235.5625 209.46875 C 237.203125 209.46875 238.480469 209.140625 239.402344 208.472656 C 239.691406 208.214844 239.875 208.042969 239.964844 207.957031 C 240.597656 207.039062 240.910156 205.839844 240.910156 204.375 L 240.910156 164.316406 C 240.910156 160.835938 239.128906 159.09375 235.5625 159.09375 Z M 206.429688 177.179688 C 205.335938 176.058594 204.042969 175.496094 202.546875 175.496094 C 201.078125 175.496094 199.839844 176 198.832031 177.007812 C 197.738281 178.042969 197.191406 179.296875 197.191406 180.765625 C 197.191406 182.230469 197.738281 183.46875 198.832031 184.472656 C 199.839844 185.480469 201.078125 185.984375 202.546875 185.984375 C 204.042969 185.984375 205.335938 185.480469 206.429688 184.472656 C 207.4375 183.46875 207.941406 182.230469 207.941406 180.765625 C 207.941406 179.296875 207.4375 178.097656 206.429688 177.179688 Z M 292.140625 49.1875 L 292.140625 55.40625 L 328.441406 55.40625 L 328.441406 49.1875 Z M 292.140625 59.160156 L 292.140625 65.332031 L 328.441406 65.332031 L 328.441406 59.160156 Z M 292.140625 69.089844 L 292.140625 75.132812 L 328.441406 75.132812 L 328.441406 69.089844 Z M 275.824219 39.257812 L 275.824219 45.476562 L 328.441406 45.476562 L 328.441406 39.257812 Z M 176.90625 90.625 C 177.128906 98.976562 179.203125 106.597656 183.125 113.507812 L 183.253906 113.808594 C 185.179688 117.203125 187.609375 120.472656 190.546875 123.609375 L 191.539062 124.429688 C 192.257812 125.179688 193.035156 125.914062 193.867188 126.628906 C 193.867188 126.71875 193.914062 126.757812 193.996094 126.757812 C 197.769531 130.097656 201.824219 132.773438 206.167969 134.789062 L 208.371094 135.609375 L 208.5 135.609375 C 208.960938 135.78125 209.464844 135.96875 210.011719 136.167969 L 212.902344 137.25 C 215.503906 137.949219 218.179688 138.46875 220.929688 138.800781 C 221.796875 138.910156 222.675781 138.992188 223.5625 139.0625 C 226.296875 139.238281 229.003906 139.191406 231.679688 138.933594 L 239.835938 137.421875 C 240.210938 137.304688 240.523438 137.203125 240.78125 137.121094 L 241.902344 136.863281 C 242.625 136.570312 243.3125 136.296875 243.976562 136.039062 L 246.433594 135.175781 C 249.863281 133.710938 253.082031 131.828125 256.101562 129.519531 C 257.027344 128.886719 257.902344 128.199219 258.734375 127.453125 L 258.605469 127.453125 L 261.628906 124.859375 C 261.800781 124.65625 261.945312 124.519531 262.0625 124.429688 C 262.230469 124.253906 262.363281 124.109375 262.449219 123.996094 L 262.578125 123.867188 L 268.273438 116.960938 C 271.757812 111.925781 274.144531 106.414062 275.4375 100.429688 C 277.191406 93.148438 277.191406 85.78125 275.4375 78.324219 C 275.355469 77.867188 275.253906 77.445312 275.136719 77.078125 C 275.015625 76.570312 274.886719 76.066406 274.75 75.5625 C 272.523438 67.433594 268.292969 60.210938 262.0625 53.894531 C 252.304688 44.226562 240.523438 39.386719 226.710938 39.386719 C 212.902344 39.386719 201.179688 44.226562 191.539062 53.894531 C 187.742188 57.6875 184.683594 61.789062 182.367188 66.195312 C 181.996094 66.589844 181.625 66.992188 181.265625 67.40625 C 180.429688 68.210938 179.640625 69.015625 178.890625 69.824219 C 176.070312 73.144531 173.152344 76.285156 170.128906 79.253906 L 170.128906 66.886719 L 171.769531 21.042969 L 337.242188 21.042969 L 337.242188 126.933594 C 336.902344 132.640625 336.703125 138.355469 336.636719 144.070312 C 334.175781 144.734375 331.585938 145.484375 328.871094 146.3125 C 328.296875 146.632812 327.734375 147.0625 327.1875 147.613281 C 326.003906 148.703125 325.148438 149.710938 324.597656 150.632812 C 326.238281 152.503906 327.289062 153.410156 327.746094 153.351562 C 328.578125 153.351562 331.546875 153.0625 336.660156 152.488281 C 336.824219 163.777344 337.535156 175.085938 338.796875 186.417969 C 339.757812 195.082031 341.621094 202.96875 344.382812 210.074219 L 322.570312 210.074219 L 322.246094 209.46875 L 323.605469 209.46875 L 323.605469 144.328125 L 308.414062 144.328125 L 308.414062 182.898438 L 300.820312 168.308594 L 300.820312 127.75 L 285.628906 127.75 L 285.628906 140.894531 C 285.242188 140.671875 284.828125 140.492188 284.375 140.359375 C 282.878906 139.871094 281.421875 140 280.015625 140.746094 C 278.605469 141.46875 277.65625 142.570312 277.164062 144.070312 C 276.734375 145.566406 276.878906 147.035156 277.597656 148.476562 L 285.628906 163.90625 L 285.628906 209.46875 L 300.820312 209.46875 L 300.820312 193.085938 L 308.414062 207.675781 L 308.414062 209.46875 L 309.339844 209.46875 L 314.023438 218.449219 C 314.515625 219.367188 315.214844 220.117188 316.140625 220.695312 C 317.058594 221.210938 318.050781 221.484375 319.113281 221.511719 L 350.019531 221.511719 C 358.507812 235.398438 371.503906 245.410156 388.988281 251.558594 L 385.96875 259.023438 L 385.96875 259.28125 L 364.605469 259.347656 C 359.226562 257.175781 353.53125 255.988281 347.515625 255.785156 C 342.363281 255.5625 338.128906 256.773438 334.828125 259.414062 L 210.570312 259.71875 C 187.839844 250.796875 175.597656 232.664062 173.84375 205.324219 C 171.742188 172.117188 170.503906 138.847656 170.128906 105.519531 L 170.128906 97.105469 C 172.429688 94.824219 174.6875 92.667969 176.90625 90.625 Z M 304.785156 499.6875 L 420.800781 499.6875 L 420.800781 508.921875 L 304.785156 508.921875 Z M 304.785156 486.777344 L 420.800781 486.777344 L 420.800781 493.984375 L 304.785156 493.984375 Z M 304.785156 481.078125 L 304.785156 470.847656 L 354.074219 470.847656 C 358.070312 471.652344 362.429688 472.058594 367.152344 472.058594 C 370.484375 472.058594 373.695312 471.652344 376.777344 470.847656 L 417.261719 470.847656 C 417.964844 471.980469 418.726562 473.199219 419.546875 474.515625 C 419.867188 475.074219 420.28125 475.816406 420.800781 476.738281 L 420.800781 481.078125 L 304.785156 481.078125 " fill-opacity="1" fill-rule="evenodd"/><path fill="#b2c3e8" d="M 292.140625 49.1875 L 328.441406 49.1875 L 328.441406 55.40625 L 292.140625 55.40625 Z M 292.140625 69.089844 L 328.441406 69.089844 L 328.441406 75.132812 L 292.140625 75.132812 Z M 292.140625 59.160156 L 328.441406 59.160156 L 328.441406 65.332031 L 292.140625 65.332031 Z M 275.824219 39.257812 L 328.441406 39.257812 L 328.441406 45.476562 L 275.824219 45.476562 Z M 221.578125 460.316406 C 221.832031 460.507812 222.078125 460.722656 222.3125 460.960938 C 223.40625 462.03125 223.9375 463.296875 223.910156 464.757812 C 223.9375 466.230469 223.40625 467.507812 222.3125 468.601562 C 222.148438 468.765625 221.984375 468.917969 221.816406 469.054688 C 220.878906 469.789062 219.792969 470.160156 218.554688 470.160156 L 153.257812 470.160156 C 152.25 470.128906 151.3125 469.871094 150.449219 469.378906 C 149.589844 468.863281 148.925781 468.15625 148.46875 467.261719 L 145.011719 460.640625 L 143.285156 457.316406 L 120.21875 413.046875 L 114.242188 401.566406 C 113.546875 400.210938 113.417969 398.828125 113.851562 397.421875 C 114.316406 396.007812 115.191406 394.964844 116.484375 394.269531 C 116.828125 394.09375 117.175781 393.957031 117.519531 393.859375 C 118.542969 393.558594 119.574219 393.582031 120.628906 393.921875 C 122.039062 394.351562 123.085938 395.25 123.78125 396.597656 L 145.078125 437.480469 L 148.832031 444.691406 L 156.496094 459.410156 L 218.554688 459.410156 C 219.691406 459.386719 220.699219 459.6875 221.578125 460.316406 " fill-opacity="1" fill-rule="evenodd"/><path fill="#f13ea7" d="M 367.199219 416.4375 C 361.429688 419.3125 356 422.140625 350.925781 424.917969 C 347.425781 426.828125 344.289062 428.628906 341.515625 430.3125 C 339.335938 425.703125 337.839844 421.167969 337.027344 416.714844 C 336.535156 414.070312 336.292969 411.453125 336.292969 408.859375 C 336.292969 407.132812 336.371094 405.5 336.53125 403.957031 C 340.042969 402.757812 344.046875 401.367188 348.550781 399.796875 C 361.335938 395.308594 370.179688 392.277344 375.089844 390.707031 C 373.539062 394.148438 372.761719 398.371094 372.761719 403.375 C 372.761719 404.132812 372.863281 404.886719 373.0625 405.644531 L 369.265625 407.390625 C 367.800781 408.050781 366.792969 409.132812 366.246094 410.628906 C 365.640625 412.125 365.6875 413.621094 366.375 415.121094 C 366.601562 415.609375 366.875 416.046875 367.199219 416.4375 Z M 385.925781 377 C 379.789062 377.625 368.871094 380.53125 353.167969 385.722656 C 350.605469 385.964844 348.195312 386.203125 345.941406 386.433594 C 348.367188 384.253906 349.988281 382.503906 350.796875 381.191406 C 352.605469 378.253906 353.515625 374.382812 353.515625 369.578125 C 353.515625 367.707031 352.347656 364.140625 350.019531 358.871094 C 347.484375 353.199219 344.535156 347.863281 341.167969 342.855469 C 338.894531 339.4375 336.710938 336.574219 334.632812 334.269531 C 332.902344 332.351562 331.238281 330.820312 329.644531 329.671875 C 332.851562 328.058594 336.679688 327.171875 341.128906 327.015625 C 342.273438 328.996094 344.21875 332.296875 346.953125 336.902344 C 352.332031 344.78125 356.964844 348.726562 360.851562 348.726562 C 363.300781 348.726562 365.152344 347.835938 366.417969 346.054688 C 367.394531 344.699219 367.886719 343.230469 367.886719 341.648438 C 367.886719 340.699219 366.808594 337.964844 364.648438 333.445312 C 364.0625 332.25 363.554688 331.074219 363.117188 329.929688 L 371.730469 331.59375 C 371.71875 331.65625 371.714844 331.722656 371.707031 331.785156 C 371.546875 333.5625 371.484375 334.503906 371.511719 334.609375 C 372.722656 340.515625 376.21875 345.9375 382 350.886719 C 384.792969 353.246094 386.632812 355.015625 387.527344 356.195312 C 389.105469 358.296875 389.898438 360.699219 389.898438 363.40625 C 389.898438 367.980469 389.003906 371.851562 387.21875 375.015625 C 386.902344 375.605469 386.472656 376.265625 385.925781 377 Z M 60.484375 215.210938 L 57.355469 215.210938 C 57.371094 214.542969 57.386719 213.910156 57.402344 213.3125 C 58.46875 213.949219 59.496094 214.582031 60.484375 215.210938 Z M 308.414062 207.675781 L 309.339844 209.46875 L 308.414062 209.46875 Z M 308.414062 182.898438 L 308.414062 144.328125 L 323.605469 144.328125 L 323.605469 209.46875 L 322.246094 209.46875 Z M 183.125 113.507812 C 183.1875 113.648438 183.257812 113.789062 183.339844 113.9375 C 183.308594 113.898438 183.28125 113.855469 183.253906 113.808594 Z M 231.679688 138.933594 C 229.003906 139.191406 226.296875 139.238281 223.5625 139.0625 C 222.675781 138.992188 221.796875 138.910156 220.929688 138.800781 C 221.847656 138.800781 222.8125 138.847656 223.820312 138.933594 C 226.5 139.105469 229.113281 139.105469 231.679688 138.933594 Z M 190.546875 123.609375 C 189.824219 122.6875 189.089844 121.8125 188.34375 120.972656 C 189.089844 121.722656 189.824219 122.5 190.546875 123.308594 C 191.667969 124.429688 192.777344 125.539062 193.867188 126.628906 C 193.035156 125.914062 192.257812 125.179688 191.539062 124.429688 Z M 275.4375 100.429688 C 274.6875 103.191406 273.730469 105.996094 272.546875 108.847656 C 271.339844 111.691406 269.914062 114.398438 268.273438 116.960938 L 262.578125 123.867188 L 262.449219 123.996094 C 262.363281 124.109375 262.230469 124.253906 262.0625 124.429688 C 261.945312 124.519531 261.800781 124.65625 261.628906 124.859375 L 258.605469 127.453125 L 226.710938 89.25 L 255.285156 48.367188 C 264.953125 55.1875 271.4375 64.253906 274.75 75.5625 C 274.886719 76.066406 275.015625 76.570312 275.136719 77.078125 C 275.253906 77.445312 275.355469 77.867188 275.4375 78.324219 C 277.191406 85.78125 277.191406 93.148438 275.4375 100.429688 Z M 91.496094 119.25 C 96.757812 125.773438 101.414062 131.488281 105.457031 136.386719 C 108.222656 139.75 110.703125 142.730469 112.902344 145.320312 C 118.628906 152.058594 121.691406 158.199219 122.09375 163.753906 C 122.441406 169.339844 117.289062 175.925781 106.644531 183.527344 C 103.105469 186.085938 100.644531 189.917969 99.261719 195.007812 C 98.769531 196.816406 99.152344 201.050781 100.40625 207.699219 C 100.835938 209.929688 101.359375 212.429688 101.984375 215.210938 L 75.765625 215.210938 C 70.695312 208.570312 65.851562 201.765625 61.242188 194.789062 C 62.722656 191.285156 64.566406 188.316406 66.769531 185.902344 C 69.613281 182.765625 73.859375 179.96875 79.496094 177.527344 C 85.394531 174.996094 89.191406 172.90625 90.890625 171.265625 C 94.199219 168.042969 95.851562 163.136719 95.851562 156.546875 C 95.851562 152.667969 94.417969 146.789062 91.539062 138.914062 C 91.242188 138.078125 90.925781 137.21875 90.585938 136.34375 C 88.910156 131.984375 87.167969 128.011719 85.367188 124.429688 C 84.726562 123.140625 84.078125 121.902344 83.421875 120.714844 C 82.746094 119.480469 82.050781 118.304688 81.355469 117.175781 L 89.769531 117.089844 C 90.105469 117.515625 90.449219 117.929688 90.785156 118.339844 C 91.027344 118.640625 91.261719 118.945312 91.496094 119.25 " fill-opacity="1" fill-rule="evenodd"/><path fill="#4ac2bd" d="M 278.070312 156.460938 L 278.070312 209.46875 L 262.878906 209.46875 L 262.878906 156.460938 Z M 194.429688 158.789062 L 235.5625 159.09375 C 239.128906 159.09375 240.910156 160.835938 240.910156 164.316406 L 240.910156 204.375 C 240.910156 205.839844 240.597656 207.039062 239.964844 207.957031 C 239.875 208.042969 239.691406 208.214844 239.402344 208.472656 C 238.480469 209.140625 237.203125 209.46875 235.5625 209.46875 L 194.429688 209.339844 C 190.832031 209.339844 189.035156 207.582031 189.035156 204.070312 L 189.035156 164.058594 C 189.035156 162.304688 189.496094 160.964844 190.417969 160.042969 C 191.421875 159.207031 192.761719 158.789062 194.429688 158.789062 Z M 192.054688 166.515625 L 192.054688 206.015625 L 192.617188 206.015625 C 193.824219 204.347656 195.25 202.363281 196.890625 200.0625 C 201.40625 194.101562 204.355469 190.433594 205.738281 189.050781 C 206.949219 188.128906 207.683594 187.480469 207.941406 187.105469 C 208.601562 186.820312 209.0625 186.863281 209.316406 187.238281 C 209.867188 187.699219 211.160156 189.625 213.207031 193.019531 C 213.664062 193.597656 214.355469 194.246094 215.277344 194.964844 L 218.296875 192.203125 C 218.839844 191.367188 220.179688 189.753906 222.3125 187.367188 C 224.242188 185.066406 225.75 183.453125 226.839844 182.535156 C 229.230469 180.433594 232.414062 182.691406 236.378906 189.3125 C 237.011719 190.316406 237.605469 191.277344 238.148438 192.203125 L 238.148438 165.695312 C 238.066406 162.9375 236.871094 161.507812 234.570312 161.425781 L 195.683594 161.855469 C 193.554688 162.113281 192.34375 163.667969 192.054688 166.515625 Z M 226.710938 89.25 L 178.441406 89.25 C 180.644531 87.257812 182.808594 85.386719 184.933594 83.636719 L 188 83.332031 C 191.796875 82.527344 194.042969 80.730469 194.730469 77.9375 L 196.027344 64.902344 L 211.824219 61.277344 C 212.628906 60.816406 212.757812 60.46875 212.214844 60.238281 C 200.253906 55.949219 190.304688 57.9375 182.367188 66.195312 C 184.683594 61.789062 187.742188 57.6875 191.539062 53.894531 C 201.179688 44.226562 212.902344 39.386719 226.710938 39.386719 C 240.523438 39.386719 252.304688 44.226562 262.0625 53.894531 C 268.292969 60.210938 272.523438 67.433594 274.75 75.5625 C 271.4375 64.253906 264.953125 55.1875 255.285156 48.367188 L 226.710938 89.25 " fill-opacity="1" fill-rule="evenodd"/><path fill="#fbd01c" d="M 219.484375 428.414062 C 215.894531 429.335938 212.230469 430.203125 208.5 431.003906 C 207.78125 431.160156 207.058594 431.3125 206.34375 431.457031 C 206.65625 430.933594 206.929688 430.351562 207.160156 429.710938 C 207.765625 427.78125 207.953125 425.4375 207.722656 422.671875 C 207.464844 418.644531 206.546875 416.082031 204.960938 414.988281 C 204.453125 414.621094 203.9375 414.300781 203.40625 414.039062 C 204.753906 413.613281 206.136719 413.183594 207.546875 412.746094 C 207.691406 412.703125 207.824219 412.660156 207.960938 412.617188 C 211.742188 411.445312 215.394531 410.277344 218.925781 409.09375 C 222.578125 407.875 226.09375 406.640625 229.472656 405.410156 C 231.359375 404.695312 234.136719 403.613281 237.800781 402.148438 C 238.023438 404.890625 238.289062 407.875 238.582031 411.105469 C 238.949219 415.238281 239.269531 419 239.554688 422.390625 C 233.113281 424.628906 226.425781 426.632812 219.484375 428.414062 Z M 209.210938 451.25 C 209.328125 450.949219 209.433594 450.652344 209.535156 450.339844 C 210.554688 447.398438 210.882812 445.117188 210.527344 443.503906 C 210.417969 443.019531 210.242188 442.59375 210.011719 442.230469 C 209.660156 441.617188 209.269531 441.070312 208.847656 440.566406 C 207.871094 439.425781 206.707031 438.554688 205.351562 437.957031 C 205.0625 437.839844 204.785156 437.738281 204.527344 437.652344 C 203.707031 437.378906 202.824219 437.183594 201.875 437.070312 C 204.027344 436.53125 206.277344 435.984375 208.628906 435.429688 C 209.882812 435.136719 211.164062 434.839844 212.472656 434.546875 C 214.902344 433.96875 217.285156 433.382812 219.613281 432.777344 C 225.113281 431.359375 230.328125 429.863281 235.257812 428.285156 C 237.007812 427.722656 238.554688 427.109375 239.898438 426.453125 C 243.363281 424.730469 245.457031 422.671875 246.175781 420.273438 C 246.21875 420.164062 246.253906 420.054688 246.289062 419.933594 C 246.351562 419.683594 246.402344 419.433594 246.433594 419.175781 C 246.84375 415.289062 247 410.671875 246.910156 405.320312 C 246.878906 403.300781 246.8125 401.042969 246.71875 398.542969 C 246.546875 394.363281 246.277344 389.511719 245.917969 383.996094 C 245.6875 380.945312 246.324219 378.253906 247.839844 375.921875 C 248.003906 375.660156 248.1875 375.402344 248.378906 375.148438 C 248.578125 374.894531 248.785156 374.660156 249.003906 374.433594 C 251.160156 372.179688 253.800781 371.652344 256.925781 372.855469 C 257.640625 373.125 258.332031 373.421875 258.996094 373.746094 C 259.011719 373.75 259.027344 373.757812 259.039062 373.761719 C 264.464844 376.355469 268.144531 380.640625 270.089844 386.628906 C 271.558594 391.289062 272.492188 396.066406 272.894531 400.960938 C 273.355469 406.574219 273.8125 412.253906 274.273438 418.011719 C 274.789062 424.488281 274.546875 430.777344 273.539062 436.875 C 273.453125 441.683594 266 444.617188 251.183594 445.679688 C 247.546875 446.101562 243.917969 446.53125 240.289062 446.976562 C 229.910156 448.261719 219.546875 449.691406 209.210938 451.25 Z M 285.628906 163.90625 L 300.820312 193.085938 L 300.820312 209.46875 L 285.628906 209.46875 Z M 300.820312 168.308594 L 287.738281 143.207031 C 287.234375 142.191406 286.527344 141.425781 285.628906 140.894531 L 285.628906 127.75 L 300.820312 127.75 Z M 206.429688 177.179688 C 207.4375 178.097656 207.941406 179.296875 207.941406 180.765625 C 207.941406 182.230469 207.4375 183.46875 206.429688 184.472656 C 205.335938 185.480469 204.042969 185.984375 202.546875 185.984375 C 201.078125 185.984375 199.839844 185.480469 198.832031 184.472656 C 197.738281 183.46875 197.191406 182.230469 197.191406 180.765625 C 197.191406 179.296875 197.738281 178.042969 198.832031 177.007812 C 199.839844 176 201.078125 175.496094 202.546875 175.496094 C 204.042969 175.496094 205.335938 176.058594 206.429688 177.179688 Z M 190.546875 123.609375 C 187.609375 120.472656 185.179688 117.203125 183.253906 113.808594 C 183.28125 113.855469 183.308594 113.898438 183.339844 113.9375 C 183.257812 113.789062 183.1875 113.648438 183.125 113.507812 C 179.203125 106.597656 177.128906 98.976562 176.90625 90.625 C 177.417969 90.160156 177.925781 89.703125 178.441406 89.25 L 226.710938 89.25 L 258.605469 127.453125 L 258.734375 127.453125 C 257.902344 128.199219 257.027344 128.886719 256.101562 129.519531 C 253.082031 131.828125 249.863281 133.710938 246.433594 135.175781 L 243.976562 136.039062 C 243.3125 136.296875 242.625 136.570312 241.902344 136.863281 L 240.78125 137.121094 C 240.523438 137.203125 240.210938 137.304688 239.835938 137.421875 L 231.679688 138.933594 C 229.113281 139.105469 226.5 139.105469 223.820312 138.933594 C 222.8125 138.847656 221.847656 138.800781 220.929688 138.800781 C 218.179688 138.46875 215.503906 137.949219 212.902344 137.25 L 210.011719 136.167969 C 209.464844 135.96875 208.960938 135.78125 208.5 135.609375 L 208.371094 135.609375 L 206.167969 134.789062 C 201.824219 132.773438 197.769531 130.097656 193.996094 126.757812 C 193.914062 126.757812 193.867188 126.71875 193.867188 126.628906 C 192.777344 125.539062 191.667969 124.429688 190.546875 123.308594 C 189.824219 122.5 189.089844 121.722656 188.34375 120.972656 C 189.089844 121.8125 189.824219 122.6875 190.546875 123.609375 Z M 268.273438 116.960938 C 269.914062 114.398438 271.339844 111.691406 272.546875 108.847656 C 273.730469 105.996094 274.6875 103.191406 275.4375 100.429688 C 274.144531 106.414062 271.757812 111.925781 268.273438 116.960938 Z M 432.972656 223.539062 C 421.835938 229.296875 412.140625 231.140625 403.882812 229.066406 C 402.902344 228.839844 401.996094 228.550781 401.160156 228.207031 L 398.355469 226.261719 L 406.039062 223.328125 C 408.570312 219.496094 409.03125 215.613281 407.417969 211.671875 C 406.8125 210.148438 405.96875 208.664062 404.875 207.222656 L 406.730469 205.066406 C 419.476562 199.367188 429.460938 189.613281 436.679688 175.796875 C 434.496094 190.101562 433.257812 206.015625 432.972656 223.539062 Z M 437.332031 171.742188 C 427.402344 178.273438 417.964844 181.539062 409.015625 181.539062 C 399.921875 181.539062 389.164062 177.710938 376.734375 170.058594 C 372.332031 167.324219 368.734375 164.847656 365.945312 162.632812 C 366.605469 162.371094 367.28125 162.039062 367.972656 161.636719 C 369.585938 160.460938 371.152344 158.675781 372.675781 156.289062 C 374.894531 152.832031 375.695312 150.199219 375.089844 148.386719 C 374.429688 146.199219 373.253906 144.441406 371.554688 143.121094 C 371.382812 142.890625 371.191406 142.644531 370.996094 142.386719 C 371.339844 142.359375 371.667969 142.339844 371.988281 142.339844 C 374.316406 142.339844 379.484375 144.503906 387.480469 148.816406 C 395.535156 153.050781 402.328125 155.164062 407.851562 155.164062 C 410.644531 155.164062 416.382812 151.453125 425.074219 144.027344 C 435.976562 134.359375 444.238281 127.308594 449.84375 122.875 C 451.800781 121.320312 453.671875 119.925781 455.457031 118.6875 C 472.894531 106.488281 481.609375 108.929688 481.609375 126.027344 C 481.609375 125.851562 479.582031 128.398438 475.527344 133.664062 C 469.914062 141.007812 464.464844 147.4375 459.171875 152.960938 C 451.628906 160.820312 444.347656 167.082031 437.332031 171.742188 " fill-opacity="1" fill-rule="evenodd"/><path fill="#f89a75" d="M 361.867188 318.746094 C 358.695312 317.742188 355.304688 314.8125 351.699219 309.960938 C 351.484375 309.671875 351.265625 309.386719 351.054688 309.097656 C 351.332031 306.914062 351.378906 304.625 351.183594 302.234375 C 350.347656 292.164062 349.890625 286.753906 349.800781 286.003906 C 350.578125 282.8125 352.117188 281.949219 354.421875 283.414062 C 355.082031 283.589844 355.644531 283.949219 356.101562 284.492188 C 356.996094 285.730469 357.558594 287.058594 357.789062 288.464844 C 358.015625 289.875 358.175781 291.1875 358.261719 292.394531 C 358.347656 293.429688 358.648438 294.304688 359.167969 295.027344 C 361.125 293.644531 362.996094 291.863281 364.777344 289.671875 C 365.613281 288.691406 366.660156 288.019531 367.925781 287.644531 C 372.792969 286.351562 377.796875 285.789062 382.949219 285.960938 C 384.546875 286.035156 386.035156 285.980469 387.414062 285.789062 C 387.414062 291.183594 385.496094 297.070312 381.65625 303.445312 C 377.597656 310.207031 373.136719 315.054688 368.273438 317.992188 C 366.246094 319.210938 364.109375 319.460938 361.867188 318.746094 Z M 404.875 207.222656 C 405.96875 208.664062 406.8125 210.148438 407.417969 211.671875 C 409.03125 215.613281 408.570312 219.496094 406.039062 223.328125 L 398.355469 226.261719 L 389.207031 229.714844 C 384.34375 228.96875 378.648438 227.972656 372.117188 226.738281 C 367.277344 225.816406 364.871094 224.074219 364.886719 221.511719 L 388.648438 221.511719 C 390.199219 221.511719 391.539062 220.953125 392.660156 219.828125 C 393.8125 218.679688 394.371094 217.324219 394.34375 215.769531 C 394.371094 214.1875 393.8125 212.835938 392.660156 211.710938 C 391.628906 210.683594 390.414062 210.132812 389.011719 210.074219 C 389.742188 209.761719 390.515625 209.417969 391.324219 209.039062 C 387.4375 206.507812 385.308594 204.171875 384.933594 202.042969 C 384.621094 200.375 384.792969 199.035156 385.453125 198.027344 C 386.519531 196.421875 387.164062 195.613281 387.394531 195.613281 C 387.683594 195.613281 387.867188 195.511719 387.957031 195.3125 C 395.179688 198.734375 400.5 202.347656 403.921875 206.144531 C 404.242188 206.492188 404.554688 206.847656 404.875 207.222656 Z M 201.875 437.070312 C 202.824219 437.183594 203.707031 437.378906 204.527344 437.652344 C 204.785156 437.738281 205.0625 437.839844 205.351562 437.957031 C 206.707031 438.554688 207.871094 439.425781 208.847656 440.566406 C 209.269531 441.070312 209.660156 441.617188 210.011719 442.230469 C 210.242188 442.59375 210.417969 443.019531 210.527344 443.503906 C 210.882812 445.117188 210.554688 447.398438 209.535156 450.339844 C 209.433594 450.652344 209.328125 450.949219 209.210938 451.25 C 208.390625 453.464844 207.417969 455.238281 206.300781 456.558594 C 205.78125 457.136719 205.234375 457.609375 204.65625 457.988281 C 204.429688 458.15625 204.199219 458.300781 203.96875 458.417969 C 202.15625 459.566406 198.355469 458.976562 192.574219 456.648438 C 187.566406 454.601562 184.445312 453.007812 183.207031 451.851562 C 172.796875 455.824219 166.992188 457.96875 165.816406 458.289062 C 165.382812 458.429688 164.164062 457.796875 162.148438 456.386719 C 162.40625 455.382812 162.980469 454.210938 163.871094 452.890625 C 164.246094 452.230469 164.667969 451.679688 165.125 451.25 C 178.445312 443.25 188.730469 438.589844 195.984375 437.261719 C 198.164062 436.929688 200.125 436.863281 201.875 437.070312 Z M 157.421875 109.082031 C 156.179688 110.117188 154.921875 111.132812 153.644531 112.128906 C 138.976562 124.078125 122.914062 132.164062 105.457031 136.386719 C 101.414062 131.488281 96.757812 125.773438 91.496094 119.25 C 95.726562 116.460938 100.734375 114.488281 106.515625 113.335938 C 125.84375 109.226562 143.058594 101.34375 158.152344 89.703125 C 162.308594 86.503906 166.300781 83.023438 170.128906 79.253906 C 173.152344 76.285156 176.070312 73.144531 178.890625 69.824219 C 179.640625 69.015625 180.429688 68.210938 181.265625 67.40625 C 181.625 66.992188 181.996094 66.589844 182.367188 66.195312 C 190.304688 57.9375 200.253906 55.949219 212.214844 60.238281 C 212.757812 60.46875 212.628906 60.816406 211.824219 61.277344 L 196.027344 64.902344 L 194.730469 77.9375 C 194.042969 80.730469 191.796875 82.527344 188 83.332031 L 184.933594 83.636719 C 182.808594 85.386719 180.644531 87.257812 178.441406 89.25 C 177.925781 89.703125 177.417969 90.160156 176.90625 90.625 C 174.6875 92.667969 172.429688 94.824219 170.128906 97.105469 C 169.203125 98.019531 168.269531 98.957031 167.328125 99.90625 C 164.144531 103.15625 160.839844 106.214844 157.421875 109.082031 Z M 90.785156 118.339844 C 90.449219 117.929688 90.105469 117.515625 89.769531 117.089844 L 81.355469 117.175781 L 76.710938 117.21875 C 76.707031 117.203125 76.703125 117.191406 76.695312 117.175781 C 77.242188 116.609375 77.949219 116.175781 78.808594 115.882812 C 84.476562 114.09375 88.722656 110.773438 91.539062 105.910156 C 93.238281 102.859375 93.566406 99.722656 92.53125 96.5 C 90.574219 90.484375 87.226562 85.378906 82.476562 81.175781 C 81.8125 80.570312 81.292969 79.949219 80.921875 79.316406 C 81.210938 77.160156 82.21875 75.738281 83.941406 75.042969 C 84.632812 74.902344 85.308594 74.988281 85.96875 75.300781 C 87.265625 76.023438 88.328125 76.988281 89.164062 78.199219 C 89.96875 79.378906 90.675781 80.5 91.28125 81.5625 C 91.769531 82.488281 92.402344 83.132812 93.179688 83.507812 C 94.390625 81.492188 95.335938 79.089844 96.027344 76.296875 C 96.34375 75.089844 97.007812 74.035156 98.011719 73.144531 C 101.867188 69.925781 106.171875 67.320312 110.914062 65.332031 C 111.105469 65.253906 111.289062 65.175781 111.480469 65.097656 C 113.089844 69.144531 113.894531 74.015625 113.894531 79.707031 C 113.894531 87.5625 113.492188 92.890625 112.6875 95.679688 C 110.125 104.28125 104.316406 106.746094 95.25 103.058594 C 94.730469 104.445312 94.117188 107.882812 93.394531 113.378906 C 92.789062 115.484375 91.921875 117.140625 90.785156 118.339844 Z M 57.402344 213.3125 C 54.597656 211.632812 51.492188 209.925781 48.078125 208.175781 C 45.847656 207.027344 43.835938 205.878906 42.039062 204.71875 C 33.328125 199.152344 29.6875 193.539062 31.113281 187.882812 C 31.207031 187.515625 31.304688 187.140625 31.394531 186.765625 C 33.125 180.191406 35.875 172.78125 39.664062 164.53125 C 43.691406 155.78125 50.320312 145.105469 59.558594 132.5 C 63.378906 127.257812 68.207031 123.511719 74.0625 121.257812 C 74.117188 121.234375 74.175781 121.214844 74.230469 121.191406 C 74.953125 120.960938 75.597656 121.105469 76.175781 121.621094 C 80.980469 126.253906 82.703125 132.214844 81.355469 139.496094 L 76.953125 144.15625 C 72.722656 149.449219 69.007812 155.078125 65.816406 161.039062 C 63.140625 165.957031 60.25 170.734375 57.140625 175.363281 C 54.320312 179.59375 54.277344 183.886719 57.011719 188.230469 C 58.398438 190.433594 59.8125 192.617188 61.242188 194.789062 C 65.851562 201.765625 70.695312 208.570312 75.765625 215.210938 C 76.925781 216.730469 78.097656 218.242188 79.28125 219.742188 C 80.320312 221.007812 81.082031 222.320312 81.570312 223.671875 C 83.726562 229.601562 82.90625 235.472656 79.109375 241.285156 C 77.183594 244.21875 74.503906 245.511719 71.082031 245.167969 C 69.183594 244.824219 67.355469 244.230469 65.597656 243.398438 C 60.332031 240.867188 57.355469 237.125 56.667969 232.175781 L 58.136719 231.484375 L 68.578125 235.152344 L 73.933594 226.648438 C 71.25 223.050781 66.769531 219.234375 60.484375 215.210938 C 59.496094 214.582031 58.46875 213.949219 57.402344 213.3125 Z M 222.957031 327.101562 C 224.28125 327.558594 225.765625 327.851562 227.40625 327.960938 C 232.46875 328.511719 235.664062 329.042969 236.984375 329.558594 C 240.292969 330.742188 242.636719 333.097656 244.019531 336.636719 C 244.078125 336.609375 244.210938 336.726562 244.40625 336.984375 C 244.925781 337.160156 245.917969 337.144531 247.386719 336.941406 C 248.117188 336.855469 248.757812 336.710938 249.308594 336.511719 C 251.082031 335.871094 251.882812 334.648438 251.699219 332.839844 C 251.386719 330.28125 252.695312 328.757812 255.632812 328.265625 C 257.441406 328.152344 258.734375 328.65625 259.515625 329.777344 C 260.078125 330.597656 260.441406 331.589844 260.59375 332.734375 C 260.644531 333.113281 260.671875 333.511719 260.679688 333.921875 C 260.671875 334.476562 260.605469 335.011719 260.484375 335.519531 C 260.25 336.546875 259.796875 337.480469 259.128906 338.324219 C 258.089844 339.5625 257.660156 341.085938 257.832031 342.898438 C 258.035156 344.65625 258.421875 345.71875 258.996094 346.09375 C 259.191406 346.210938 259.554688 346.386719 260.074219 346.613281 C 261.074219 347.074219 262.683594 347.75 264.90625 348.640625 C 265.253906 348.753906 265.570312 348.871094 265.859375 348.988281 C 265.339844 350.828125 264.605469 352.441406 263.65625 353.824219 C 262.601562 355.429688 261.265625 356.789062 259.644531 357.902344 C 257.0625 359.664062 253.769531 360.792969 249.761719 361.289062 C 249.292969 361.355469 248.832031 361.394531 248.378906 361.417969 C 247.339844 361.480469 246.332031 361.449219 245.359375 361.332031 C 238.367188 360.671875 232.753906 355.980469 228.527344 347.257812 C 225.734375 341.417969 223.910156 334.957031 223.046875 327.878906 C 223.015625 327.621094 222.984375 327.359375 222.957031 327.101562 Z M 375.089844 390.707031 C 370.179688 392.277344 361.335938 395.308594 348.550781 399.796875 C 344.046875 401.367188 340.042969 402.757812 336.53125 403.957031 C 324.660156 408.058594 318.441406 410.113281 317.863281 410.113281 C 317.179688 410.113281 316.523438 410.082031 315.898438 410.023438 C 311.585938 409.613281 308.773438 407.769531 307.464844 404.5 C 306.976562 403.320312 306.730469 401.117188 306.730469 397.898438 C 306.730469 395.117188 307.097656 391.03125 307.832031 385.660156 C 308.074219 383.917969 308.355469 382.035156 308.671875 380.023438 C 309.996094 371.589844 310.671875 365.636719 310.699219 362.152344 C 311.277344 358.179688 311.738281 355.070312 312.078125 352.832031 C 312.773438 348.796875 313.589844 345.78125 314.542969 343.761719 C 316.5 339.484375 319.238281 336.707031 322.761719 335.433594 C 323.691406 335.097656 324.679688 334.867188 325.71875 334.742188 C 327.792969 334.511719 329.503906 334.886719 330.855469 335.863281 C 332.292969 336.929688 333.011719 338.5 333.011719 340.570312 C 333.011719 342.46875 332.050781 348.945312 330.121094 359.996094 C 328.167969 371.046875 327.1875 377.21875 327.1875 378.511719 C 327.1875 380.007812 326.441406 383.5625 324.945312 389.175781 C 328.910156 388.375 335.910156 387.464844 345.941406 386.433594 C 348.195312 386.203125 350.605469 385.964844 353.167969 385.722656 C 368.871094 380.53125 379.789062 377.625 385.925781 377 C 386.761719 376.917969 387.511719 376.871094 388.171875 376.871094 C 390.820312 376.871094 394.546875 377.449219 399.351562 378.601562 C 403.539062 379.570312 408.046875 382.484375 412.878906 387.339844 L 391.324219 397.246094 C 390.144531 396.609375 389.050781 395.875 388.042969 395.046875 C 386.085938 393.203125 384.660156 391.910156 383.769531 391.160156 C 382.390625 390.011719 381.007812 389.433594 379.628906 389.433594 C 379.261719 389.433594 377.75 389.859375 375.089844 390.707031 Z M 438.601562 501.539062 C 437.972656 500.101562 437.425781 498.757812 436.960938 497.503906 C 438.382812 496.816406 440.566406 495.730469 443.503906 494.242188 C 446.390625 492.777344 448.519531 491.671875 449.890625 490.921875 C 450.226562 494.847656 451.65625 498.636719 454.164062 502.296875 L 454.894531 508.96875 C 454.910156 509.039062 454.925781 509.109375 454.9375 509.179688 C 454.015625 508.867188 450.75 506.6875 445.140625 502.660156 C 441.933594 500.800781 439.75 500.425781 438.601562 501.539062 Z M 365.945312 162.632812 C 365.714844 162.71875 365.484375 162.808594 365.253906 162.890625 C 363.152344 163.554688 359.558594 162.039062 354.464844 158.359375 C 350.035156 155.105469 347.375 152.761719 346.480469 151.320312 C 342.617188 151.789062 339.339844 152.175781 336.660156 152.488281 C 331.546875 153.0625 328.578125 153.351562 327.746094 153.351562 C 327.289062 153.410156 326.238281 152.503906 324.597656 150.632812 C 325.148438 149.710938 326.003906 148.703125 327.1875 147.613281 C 327.734375 147.0625 328.296875 146.632812 328.871094 146.3125 C 331.585938 145.484375 334.175781 144.734375 336.636719 144.070312 C 347.824219 141.050781 356.472656 139.738281 362.578125 140.140625 C 365.972656 140.457031 368.722656 141.277344 370.824219 142.605469 C 371.082031 142.777344 371.328125 142.945312 371.554688 143.121094 C 373.253906 144.441406 374.429688 146.199219 375.089844 148.386719 C 375.695312 150.199219 374.894531 152.832031 372.675781 156.289062 C 371.152344 158.675781 369.585938 160.460938 367.972656 161.636719 C 367.28125 162.039062 366.605469 162.371094 365.945312 162.632812 Z M 478.070312 96.070312 C 477.324219 97.914062 476.363281 99.507812 475.179688 100.859375 C 471.785156 104.832031 466.621094 106.816406 459.6875 106.816406 C 458.074219 106.816406 456.566406 106.675781 455.15625 106.386719 C 447.933594 104.773438 442.667969 99.132812 439.359375 89.460938 C 437.199219 83.046875 436.121094 76.097656 436.121094 68.613281 C 436.121094 68.328125 436.121094 68.054688 436.121094 67.796875 C 437.476562 68.394531 438.984375 68.886719 440.652344 69.261719 C 445.859375 70.46875 449.140625 71.417969 450.492188 72.109375 C 453.773438 73.75 455.90625 76.511719 456.878906 80.398438 C 456.9375 80.398438 457.054688 80.527344 457.226562 80.785156 C 457.742188 81.046875 458.796875 81.175781 460.375 81.175781 C 463.65625 81.175781 465.328125 79.910156 465.382812 77.378906 C 465.382812 74.703125 466.953125 73.289062 470.089844 73.144531 C 471.988281 73.261719 473.265625 73.949219 473.925781 75.21875 C 474.589844 76.457031 474.804688 77.953125 474.574219 79.707031 C 474.34375 81.433594 473.613281 82.902344 472.375 84.113281 C 471.164062 85.261719 470.546875 86.789062 470.519531 88.6875 C 470.492188 90.585938 470.75 91.753906 471.292969 92.183594 C 471.84375 92.613281 473.796875 93.75 477.164062 95.59375 C 477.511719 95.765625 477.8125 95.921875 478.070312 96.070312 " fill-opacity="1" fill-rule="evenodd"/><path fill="#e7137c" d="M 322.761719 335.433594 C 324.601562 332.980469 326.898438 331.058594 329.644531 329.671875 C 331.238281 330.820312 332.902344 332.351562 334.632812 334.269531 C 336.710938 336.574219 338.894531 339.4375 341.167969 342.855469 C 344.535156 347.863281 347.484375 353.199219 350.019531 358.871094 C 352.347656 364.140625 353.515625 367.707031 353.515625 369.578125 C 353.515625 374.382812 352.605469 378.253906 350.796875 381.191406 C 349.988281 382.503906 348.367188 384.253906 345.941406 386.433594 C 335.910156 387.464844 328.910156 388.375 324.945312 389.175781 C 326.441406 383.5625 327.1875 380.007812 327.1875 378.511719 C 327.1875 377.21875 328.167969 371.046875 330.121094 359.996094 C 332.050781 348.945312 333.011719 342.46875 333.011719 340.570312 C 333.011719 338.5 332.292969 336.929688 330.855469 335.863281 C 329.503906 334.886719 327.792969 334.511719 325.71875 334.742188 C 324.679688 334.867188 323.691406 335.097656 322.761719 335.433594 Z M 81.355469 117.175781 C 82.050781 118.304688 82.746094 119.480469 83.421875 120.714844 C 84.078125 121.902344 84.726562 123.140625 85.367188 124.429688 C 87.167969 128.011719 88.910156 131.984375 90.585938 136.34375 C 90.925781 137.21875 91.242188 138.078125 91.539062 138.914062 C 94.417969 146.789062 95.851562 152.667969 95.851562 156.546875 C 95.851562 163.136719 94.199219 168.042969 90.890625 171.265625 C 89.191406 172.90625 85.394531 174.996094 79.496094 177.527344 C 73.859375 179.96875 69.613281 182.765625 66.769531 185.902344 C 64.566406 188.316406 62.722656 191.285156 61.242188 194.789062 C 59.8125 192.617188 58.398438 190.433594 57.011719 188.230469 C 54.277344 183.886719 54.320312 179.59375 57.140625 175.363281 C 60.25 170.734375 63.140625 165.957031 65.816406 161.039062 C 69.007812 155.078125 72.722656 149.449219 76.953125 144.15625 L 81.355469 139.496094 C 82.703125 132.214844 80.980469 126.253906 76.175781 121.621094 C 75.597656 121.105469 74.953125 120.960938 74.230469 121.191406 C 74.175781 121.214844 74.117188 121.234375 74.0625 121.257812 C 74.628906 119.957031 75.417969 118.703125 76.433594 117.480469 C 76.503906 117.390625 76.578125 117.300781 76.648438 117.21875 L 76.710938 117.21875 Z M 57.355469 215.210938 L 40.394531 215.210938 C 40.953125 211.453125 41.503906 207.957031 42.039062 204.71875 C 43.835938 205.878906 45.847656 207.027344 48.078125 208.175781 C 51.492188 209.925781 54.597656 211.632812 57.402344 213.3125 C 57.386719 213.910156 57.371094 214.542969 57.355469 215.210938 Z M 341.515625 430.3125 C 340.074219 431.191406 338.730469 432.042969 337.480469 432.859375 C 332.289062 436.289062 328.792969 439.207031 326.996094 441.625 C 326.847656 441.816406 326.707031 442.011719 326.582031 442.207031 C 322.835938 438.972656 319.746094 431.019531 317.304688 418.359375 C 316.792969 415.707031 316.324219 412.929688 315.898438 410.023438 C 316.523438 410.082031 317.179688 410.113281 317.863281 410.113281 C 318.441406 410.113281 324.660156 408.058594 336.53125 403.957031 C 336.371094 405.5 336.292969 407.132812 336.292969 408.859375 C 336.292969 411.453125 336.535156 414.070312 337.027344 416.714844 C 337.839844 421.167969 339.335938 425.703125 341.515625 430.3125 " fill-opacity="1" fill-rule="evenodd"/><path fill="#25686c" d="M 118.859375 441.792969 C 118.699219 442.015625 118.507812 442.230469 118.296875 442.445312 C 113.914062 442.996094 110.390625 441.894531 107.722656 439.144531 C 106.910156 438.292969 106.175781 437.292969 105.519531 436.140625 C 100.289062 426.46875 96.070312 416.445312 92.878906 406.054688 C 90 396.644531 88.445312 386.976562 88.21875 377.046875 C 87.871094 365.738281 88.605469 354.511719 90.417969 343.375 C 92.359375 331.652344 91.808594 319.96875 88.753906 308.324219 C 89.835938 296.140625 90.375 286.484375 90.375 279.355469 C 90.375 265.601562 90.949219 251.273438 92.097656 236.363281 C 92.824219 227.019531 93.320312 219.96875 93.589844 215.210938 L 101.984375 215.210938 C 101.359375 212.429688 100.835938 209.929688 100.40625 207.699219 C 107.496094 232.734375 110.667969 258.585938 109.925781 285.269531 C 109.519531 301.070312 109.894531 316.925781 111.050781 332.839844 C 112.578125 353.171875 114.734375 373.507812 117.519531 393.859375 C 117.175781 393.957031 116.828125 394.09375 116.484375 394.269531 C 115.191406 394.964844 114.316406 396.007812 113.851562 397.421875 C 113.417969 398.828125 113.546875 400.210938 114.242188 401.566406 L 120.21875 413.046875 C 121.238281 422.320312 121.042969 431.332031 119.636719 440.070312 C 119.535156 440.667969 119.269531 441.246094 118.859375 441.792969 Z M 467.367188 392.324219 C 467.730469 396.445312 468.0625 400.597656 468.363281 404.804688 C 468.621094 409.0625 469.0625 413.417969 469.699219 417.882812 C 469.960938 419.753906 470.21875 421.535156 470.476562 423.238281 C 470.632812 424.578125 470.574219 425.828125 470.28125 426.992188 C 470.261719 427.082031 470.242188 427.164062 470.21875 427.246094 L 456.339844 427.246094 C 453.402344 416.542969 451.4375 409.34375 450.449219 405.664062 C 449.066406 400.945312 447.660156 397.421875 446.21875 395.089844 C 444.125 391.644531 441 389.734375 436.832031 389.351562 C 436.828125 389.300781 436.820312 389.25 436.808594 389.199219 L 446.265625 384.859375 C 446.824219 384.632812 447.359375 384.320312 447.863281 383.90625 C 449.125 382.902344 449.832031 381.59375 449.972656 379.980469 L 453.921875 337.632812 C 454.933594 341.855469 455.945312 346.070312 456.964844 350.28125 C 459.558594 360.640625 462.101562 371.085938 464.605469 381.621094 C 465.464844 385.210938 466.382812 388.777344 467.367188 392.324219 Z M 447.210938 296.40625 C 446.347656 297.351562 445.84375 298.488281 445.699219 299.816406 L 438.691406 375.492188 L 435.191406 377.109375 C 434.320312 372.203125 433.015625 367.375 431.285156 362.628906 C 427.257812 352.097656 423.546875 341.289062 420.152344 330.210938 C 417.214844 320.566406 416.238281 310.710938 417.214844 300.640625 C 417.589844 296.351562 418.269531 292.121094 419.242188 287.949219 C 420.945312 280.984375 422.8125 274.105469 424.855469 267.3125 C 428.078125 256.953125 431.074219 246.648438 433.835938 236.40625 C 434.203125 235.375 434.566406 234.339844 434.910156 233.296875 L 453.1875 233.296875 C 452.683594 240.277344 451.988281 247.285156 451.097656 254.320312 C 450.632812 257.371094 450.230469 260.492188 449.890625 263.6875 C 448.527344 274.667969 447.636719 285.574219 447.210938 296.40625 " fill-opacity="1" fill-rule="evenodd"/><g clip-path="url(#5859adb6b1)"><path fill="#349091" d="M 67.691406 436.59375 C 66.039062 439.972656 64.394531 441.664062 62.75 441.664062 C 59.496094 441.664062 57.074219 439.863281 55.480469 436.25 C 54.53125 434.113281 53.882812 431.34375 53.515625 427.941406 C 53.429688 427.59375 53.386719 421.078125 53.386719 408.382812 C 53.386719 402.570312 52.984375 396.46875 52.175781 390.085938 C 51.285156 383.691406 50.839844 378.414062 50.839844 374.238281 C 50.839844 363.332031 53.039062 353.375 57.441406 344.367188 C 61.871094 335.359375 64.089844 328.730469 64.089844 324.46875 C 64.089844 308.234375 60.25 291.027344 52.566406 272.835938 C 47.875 262.046875 45.214844 255.65625 44.582031 253.675781 C 42.105469 246.796875 40.871094 240.496094 40.871094 234.765625 C 40.871094 226.632812 41.554688 220.117188 42.921875 215.210938 L 60.484375 215.210938 C 66.769531 219.234375 71.25 223.050781 73.933594 226.648438 L 68.578125 235.152344 L 58.136719 231.484375 L 56.667969 232.175781 C 57.355469 237.125 60.332031 240.867188 65.597656 243.398438 C 67.355469 244.230469 69.183594 244.824219 71.082031 245.167969 C 74.503906 245.511719 77.183594 244.21875 79.109375 241.285156 C 82.90625 235.472656 83.726562 229.601562 81.570312 223.671875 C 81.082031 222.320312 80.320312 221.007812 79.28125 219.742188 C 78.097656 218.242188 76.925781 216.730469 75.765625 215.210938 L 93.589844 215.210938 C 93.320312 219.96875 92.824219 227.019531 92.097656 236.363281 C 90.949219 251.273438 90.375 265.601562 90.375 279.355469 C 90.375 286.484375 89.835938 296.140625 88.753906 308.324219 C 87.382812 323.75 85.144531 343.214844 82.042969 366.730469 C 77.191406 403.679688 72.40625 426.96875 67.691406 436.59375 Z M 504.59375 427.246094 L 485.0625 427.246094 C 479.710938 423.679688 475.925781 418.730469 473.710938 412.398438 C 471.367188 405.789062 469.257812 399.097656 467.367188 392.324219 C 466.382812 388.777344 465.464844 385.210938 464.605469 381.621094 C 462.101562 371.085938 459.558594 360.640625 456.964844 350.28125 C 455.945312 346.070312 454.933594 341.855469 453.921875 337.632812 L 457.355469 300.898438 C 457.496094 299.285156 457.066406 297.878906 456.0625 296.667969 C 455.054688 295.402344 453.730469 294.695312 452.089844 294.550781 C 450.507812 294.441406 449.082031 294.871094 447.816406 295.84375 C 447.597656 296.03125 447.402344 296.214844 447.210938 296.40625 C 447.636719 285.574219 448.527344 274.667969 449.890625 263.6875 C 450.230469 260.492188 450.632812 257.371094 451.097656 254.320312 C 451.988281 247.285156 452.683594 240.277344 453.1875 233.296875 L 503.1875 233.296875 C 502.0625 239.824219 500.835938 246.253906 499.519531 252.59375 C 496.847656 264.910156 494.398438 277.3125 492.1875 289.804688 C 491.179688 295.242188 490.328125 300.769531 489.636719 306.378906 C 489.554688 307.558594 489.59375 308.507812 489.765625 309.226562 C 490.371094 312.800781 491.078125 316.453125 491.882812 320.191406 C 494.472656 331.960938 497.015625 343.605469 499.519531 355.117188 C 502.65625 369.5625 505.417969 384.070312 507.808594 398.632812 C 508.785156 404.328125 509.1875 410.042969 509.015625 415.765625 C 508.84375 419.964844 507.636719 423.796875 505.390625 427.246094 L 504.59375 427.246094 " fill-opacity="1" fill-rule="evenodd"/></g><g clip-path="url(#ba063b1529)"><path fill="#245190" d="M 308.414062 207.675781 L 300.820312 193.085938 L 285.628906 163.90625 L 277.597656 148.476562 C 276.878906 147.035156 276.734375 145.566406 277.164062 144.070312 C 277.65625 142.570312 278.605469 141.46875 280.015625 140.746094 C 281.421875 140 282.878906 139.871094 284.375 140.359375 C 284.828125 140.492188 285.242188 140.671875 285.628906 140.894531 C 286.527344 141.425781 287.234375 142.191406 287.738281 143.207031 L 300.820312 168.308594 L 308.414062 182.898438 L 322.246094 209.46875 L 322.570312 210.074219 L 388.648438 210.074219 C 388.773438 210.074219 388.894531 210.074219 389.011719 210.074219 C 390.414062 210.132812 391.628906 210.683594 392.660156 211.710938 C 393.8125 212.835938 394.371094 214.1875 394.34375 215.769531 C 394.371094 217.324219 393.8125 218.679688 392.660156 219.828125 C 391.539062 220.953125 390.199219 221.511719 388.648438 221.511719 L 319.113281 221.511719 C 318.050781 221.484375 317.058594 221.210938 316.140625 220.695312 C 315.214844 220.117188 314.515625 219.367188 314.023438 218.449219 L 309.339844 209.46875 Z M 82.390625 48.324219 C 82.53125 48.375 82.6875 48.433594 82.863281 48.5 C 81.886719 50.980469 80.746094 53.816406 79.433594 57.003906 C 78.8125 58.503906 78.164062 60.089844 77.46875 61.753906 C 74.757812 68.304688 72.027344 74.738281 69.265625 81.046875 C 64.015625 93.109375 58.675781 104.71875 53.257812 115.882812 C 40.914062 141.175781 30.039062 160.316406 20.628906 173.292969 C 19.480469 170.476562 18.441406 167.175781 17.519531 163.414062 C 14.988281 153.394531 15.75 145.0625 19.808594 138.414062 C 23.808594 131.765625 28.078125 127.179688 32.628906 124.640625 C 37.113281 122.144531 41.847656 118.171875 46.828125 112.726562 C 51.800781 107.289062 54.566406 100.183594 55.113281 91.40625 C 55.195312 89.796875 55.300781 88.210938 55.414062 86.660156 C 55.441406 86.398438 55.457031 86.15625 55.457031 85.921875 C 55.457031 85.808594 55.472656 85.707031 55.503906 85.625 C 55.503906 85.359375 55.515625 85.128906 55.542969 84.929688 C 55.429688 75.925781 56.753906 67.460938 59.515625 59.550781 C 59.773438 58.972656 60.046875 58.398438 60.332031 57.820312 C 60.679688 57.160156 61.066406 56.5 61.496094 55.835938 C 64.460938 51.71875 67.84375 49.105469 71.640625 47.980469 C 71.960938 47.867188 72.273438 47.765625 72.59375 47.675781 C 72.734375 47.621094 72.890625 47.59375 73.066406 47.59375 C 73.183594 47.5625 73.285156 47.546875 73.367188 47.546875 C 73.511719 47.519531 73.660156 47.476562 73.800781 47.417969 C 73.828125 47.417969 73.886719 47.417969 73.972656 47.417969 C 76.648438 47.1875 79.410156 47.476562 82.257812 48.28125 Z M 55.609375 442.8125 C 56.695312 441.527344 58.886719 441.851562 62.191406 443.78125 C 64.191406 445.203125 65.886719 446.390625 67.285156 447.34375 C 69.710938 449.011719 71.207031 449.953125 71.769531 450.171875 C 78.824219 452.042969 83.859375 453.511719 86.878906 454.574219 C 91.394531 456.128906 94.390625 457.65625 95.851562 459.152344 C 95.453125 459.785156 95.089844 460.472656 94.777344 461.222656 C 94.34375 461.621094 93.683594 461.824219 92.789062 461.824219 C 88.359375 461.824219 83.125 461.292969 77.082031 460.226562 C 69.367188 458.847656 64.332031 457.050781 61.972656 454.832031 C 62.78125 456.789062 62.980469 458.519531 62.578125 460.015625 L 62.320312 460.617188 C 62.003906 460.933594 61.386719 461.089844 60.460938 461.089844 C 58.277344 461.089844 56.679688 458.558594 55.671875 453.496094 L 54.808594 445.855469 C 54.808594 444.457031 55.078125 443.4375 55.609375 442.8125 Z M 238.882812 453.625 C 245.175781 455.667969 254.324219 457.941406 266.332031 460.445312 C 278.429688 462.921875 290.109375 465.046875 301.355469 466.8125 C 299.039062 486.148438 295.261719 498.128906 290.027344 502.75 C 284.675781 507.46875 276.660156 510.261719 265.988281 511.125 C 259.917969 511.59375 251.503906 510.261719 240.738281 507.109375 C 241.261719 506.523438 241.75 505.890625 242.210938 505.210938 C 242.78125 504.40625 243.113281 503.539062 243.203125 502.621094 C 243.660156 497.554688 241.488281 494.261719 236.683594 492.738281 C 231.101562 491.007812 225.378906 490.316406 219.507812 490.664062 C 211.882812 491.121094 204.1875 491.078125 196.417969 490.535156 C 190.949219 490.03125 186.703125 491.359375 183.683594 494.523438 C 171.488281 492.113281 164.601562 487.675781 163.007812 481.207031 C 161.953125 476.90625 161.609375 473.222656 161.972656 470.160156 L 218.554688 470.160156 C 219.792969 470.160156 220.878906 469.789062 221.816406 469.054688 C 224.320312 469.855469 225.976562 470.308594 226.800781 470.414062 C 228.09375 470.617188 230.167969 468.332031 233.011719 463.554688 C 235.332031 459.667969 237.289062 456.355469 238.882812 453.625 Z M 250.6875 299 C 250.84375 298.945312 250.996094 298.882812 251.140625 298.824219 C 255.527344 297.074219 259.113281 296.683594 261.910156 297.660156 C 264.871094 298.675781 266.949219 301.207031 268.144531 305.253906 L 269.914062 319.671875 C 269.511719 319.242188 269.109375 318.726562 268.707031 318.121094 C 266.703125 315.042969 264.242188 313.449219 261.328125 313.332031 C 261.183594 313.332031 261.039062 313.332031 260.898438 313.332031 C 258.429688 313.332031 254.824219 314.195312 250.0625 315.921875 C 249.546875 316.113281 249.015625 316.316406 248.46875 316.523438 C 242.9375 318.625 238.523438 319.664062 235.214844 319.632812 C 227.851562 319.632812 221.515625 318.195312 216.203125 315.316406 C 214.652344 314.488281 213.191406 313.539062 211.824219 312.464844 C 209.722656 308.035156 209.867188 303.714844 212.253906 299.515625 C 213.402344 300.15625 214.582031 300.714844 215.792969 301.199219 C 225.390625 305.074219 237.023438 304.339844 250.6875 299 Z M 322.722656 304.890625 C 325.125 302.992188 327.058594 300.640625 328.527344 297.835938 C 329.503906 295.964844 329.664062 294.046875 329 292.09375 C 327.15625 286.738281 326.496094 281.445312 327.011719 276.207031 C 327.214844 273.585938 327.734375 271.082031 328.570312 268.695312 C 330.039062 264.652344 332.125 261.5625 334.828125 259.414062 C 338.128906 256.773438 342.363281 255.5625 347.515625 255.785156 C 353.53125 255.988281 359.226562 257.175781 364.605469 259.347656 C 366.140625 259.960938 367.648438 260.660156 369.136719 261.441406 C 372.332031 263.140625 375.628906 264.691406 379.023438 266.105469 C 380.621094 266.785156 382.210938 267.464844 383.789062 268.132812 C 388.996094 270.355469 394.078125 272.53125 399.046875 274.652344 C 400.3125 275.257812 400.28125 276.375 398.960938 278.019531 C 394.476562 278.171875 390.0625 277.984375 385.710938 277.457031 C 377.902344 276.519531 370.3125 274.492188 362.925781 271.375 C 360.367188 270.25 357.757812 269.359375 355.089844 268.695312 C 354.351562 268.511719 353.613281 268.347656 352.863281 268.199219 C 351.617188 267.953125 350.347656 267.761719 349.066406 267.617188 C 347.5625 267.574219 346.203125 267.773438 344.988281 268.222656 C 342.949219 268.972656 341.316406 270.414062 340.09375 272.539062 C 338.164062 275.90625 337.375 281.027344 337.71875 287.902344 C 338.035156 294.78125 337.3125 299.632812 335.558594 302.449219 C 334.996094 303.320312 334.40625 304.15625 333.789062 304.953125 C 332.40625 306.707031 330.878906 308.277344 329.214844 309.664062 C 327.5625 311.019531 325.492188 312.6875 323 314.671875 C 321.851562 315.582031 320.617188 316.558594 319.289062 317.605469 C 314.222656 321.515625 309.261719 325.488281 304.398438 329.519531 C 298.875 334.066406 294.847656 339.589844 292.316406 346.09375 C 289.953125 352.226562 289.292969 358.554688 290.328125 365.085938 C 291.453125 372.019531 294.269531 378.136719 298.785156 383.4375 C 293.292969 380.703125 288.144531 377.304688 283.335938 373.246094 C 277.84375 368.644531 274.273438 362.875 272.632812 355.9375 C 272.230469 354.210938 272.101562 352.496094 272.246094 350.800781 C 273.164062 339.03125 277.941406 328.886719 286.574219 320.367188 C 289.566406 317.402344 293.0625 315.417969 297.0625 314.40625 C 303.335938 312.710938 309.578125 310.800781 315.792969 308.667969 C 318.421875 307.71875 320.730469 306.460938 322.722656 304.890625 Z M 438.601562 501.539062 C 439.75 500.425781 441.933594 500.800781 445.140625 502.660156 C 450.75 506.6875 454.015625 508.867188 454.9375 509.179688 C 457.375 509.835938 459.578125 510.4375 461.539062 510.996094 C 461.847656 511.082031 462.152344 511.171875 462.449219 511.253906 C 465.855469 512.230469 468.5 513.046875 470.390625 513.710938 C 472.167969 514.324219 473.714844 514.941406 475.027344 515.550781 C 477.105469 516.5 478.605469 517.445312 479.539062 518.371094 C 479.105469 519.039062 478.734375 519.746094 478.417969 520.488281 C 477.984375 520.921875 477.308594 521.140625 476.390625 521.140625 C 471.871094 521.140625 466.519531 520.589844 460.332031 519.5 C 452.476562 518.058594 447.328125 516.214844 444.882812 513.976562 C 445.746094 515.988281 445.960938 517.738281 445.53125 519.242188 L 445.273438 519.886719 C 444.953125 520.203125 444.332031 520.359375 443.414062 520.359375 C 441.140625 520.359375 439.503906 517.773438 438.496094 512.59375 L 437.632812 504.824219 C 437.632812 503.261719 437.957031 502.167969 438.601562 501.539062 Z M 436.960938 497.503906 C 435.734375 498.09375 435.0625 498.386719 434.957031 498.386719 C 433.746094 498.386719 431.273438 495.195312 427.53125 488.804688 C 424.496094 483.351562 422.253906 479.332031 420.800781 476.738281 C 420.28125 475.816406 419.867188 475.074219 419.546875 474.515625 C 418.726562 473.199219 417.964844 471.980469 417.261719 470.847656 C 414.152344 465.84375 412.226562 462.648438 411.480469 461.265625 C 410.71875 459.785156 410.226562 457.617188 410.011719 454.765625 C 409.921875 453.636719 409.882812 452.386719 409.882812 451.035156 C 409.882812 449.679688 410.078125 447.195312 410.484375 443.570312 C 410.976562 439.625 411.492188 436.28125 412.039062 433.550781 L 411.78125 432.816406 C 411.316406 433.421875 410.050781 435.984375 407.984375 440.5 C 405.480469 445.652344 402.847656 450.101562 400.085938 453.839844 C 397.835938 456.867188 395.46875 459.527344 392.984375 461.804688 C 388.058594 466.292969 382.652344 469.304688 376.777344 470.847656 C 373.695312 471.652344 370.484375 472.058594 367.152344 472.058594 C 362.429688 472.058594 358.070312 471.652344 354.074219 470.847656 C 345.183594 469.050781 338.101562 465.253906 332.84375 459.453125 C 330.277344 456.660156 328.339844 453.59375 327.011719 450.257812 C 326.066406 447.925781 325.589844 446.167969 325.589844 444.992188 C 325.589844 444.160156 325.921875 443.230469 326.582031 442.207031 C 326.707031 442.011719 326.847656 441.816406 326.996094 441.625 C 328.792969 439.207031 332.289062 436.289062 337.480469 432.859375 C 338.730469 432.042969 340.074219 431.191406 341.515625 430.3125 C 344.289062 428.628906 347.425781 426.828125 350.925781 424.917969 C 356 422.140625 361.429688 419.3125 367.199219 416.4375 C 367.820312 417.203125 368.625 417.785156 369.613281 418.183594 C 371.109375 418.730469 372.605469 418.671875 374.101562 418.011719 L 420.347656 396.75 C 423.40625 397.597656 425.785156 399.429688 427.488281 402.253906 C 428.984375 404.703125 430.453125 408.382812 431.890625 413.304688 C 433.160156 418.0625 436.007812 428.460938 440.417969 444.496094 C 441.359375 447.914062 442.375 451.59375 443.457031 455.523438 C 443.503906 455.6875 443.542969 455.84375 443.585938 455.996094 C 447.417969 470.28125 449.90625 480.09375 451.03125 485.4375 C 451.507812 487.675781 451.742188 489.128906 451.742188 489.800781 C 451.742188 489.882812 451.128906 490.257812 449.890625 490.921875 C 448.519531 491.671875 446.390625 492.777344 443.503906 494.242188 C 440.566406 495.730469 438.382812 496.816406 436.960938 497.503906 Z M 493.480469 441.6875 C 497.238281 441.234375 501.210938 440.878906 505.390625 440.628906 C 506.226562 440.585938 507.078125 440.542969 507.9375 440.5 C 508.140625 441.9375 508.242188 444.445312 508.242188 448.011719 C 508.242188 451.753906 508.140625 453.8125 507.9375 454.183594 C 507.25 455.421875 504.617188 456.042969 500.039062 456.042969 C 498.542969 456.042969 497.609375 455.511719 497.234375 454.445312 C 496.886719 453.292969 496.1875 452.71875 495.121094 452.71875 C 493.050781 452.71875 489.292969 453.421875 483.855469 454.832031 C 478.417969 456.273438 472.171875 456.988281 465.125 456.988281 C 464.898438 456.988281 464.652344 456.984375 464.390625 456.96875 C 463.808594 454.734375 463.175781 452.332031 462.492188 449.765625 C 464.019531 449.101562 465.789062 448.390625 467.796875 447.625 C 468.777344 447.246094 469.785156 446.886719 470.820312 446.542969 C 477.242188 444.371094 484.796875 442.753906 493.480469 441.6875 Z M 486.097656 67.621094 C 475.742188 65.695312 466.261719 63.03125 457.660156 59.632812 C 454.148438 58.25 450.0625 56.238281 445.402344 53.589844 C 442.835938 52.09375 439.085938 49.90625 434.136719 47.027344 C 433.707031 46.769531 433.285156 46.539062 432.882812 46.339844 C 437.660156 43.921875 445.6875 42.496094 456.964844 42.0625 C 464.851562 41.722656 471.265625 41.835938 476.214844 42.410156 C 481.164062 42.988281 484.457031 45.777344 486.097656 50.785156 L 486.097656 67.621094 " fill-opacity="1" fill-rule="evenodd"/></g><path fill="#ee8960" d="M 427.988281 380.410156 L 412.878906 387.339844 C 408.046875 382.484375 403.539062 379.570312 399.351562 378.601562 C 394.546875 377.449219 390.820312 376.871094 388.171875 376.871094 C 387.511719 376.871094 386.761719 376.917969 385.925781 377 C 386.472656 376.265625 386.902344 375.605469 387.21875 375.015625 C 389.003906 371.851562 389.898438 367.980469 389.898438 363.40625 C 389.898438 360.699219 389.105469 358.296875 387.527344 356.195312 C 386.632812 355.015625 384.792969 353.246094 382 350.886719 C 376.21875 345.9375 372.722656 340.515625 371.511719 334.609375 C 371.484375 334.503906 371.546875 333.5625 371.707031 331.785156 C 376.28125 332.203125 381.484375 337.847656 387.308594 348.726562 C 394.011719 361.273438 397.765625 369.78125 398.574219 374.238281 L 399.21875 374.152344 C 399.851562 374.039062 400.671875 373.980469 401.683594 373.980469 C 412.902344 373.980469 420.742188 375.304688 425.203125 377.953125 C 426.433594 378.703125 427.363281 379.519531 427.988281 380.410156 Z M 203.40625 414.039062 C 203.9375 414.300781 204.453125 414.621094 204.960938 414.988281 C 206.546875 416.082031 207.464844 418.644531 207.722656 422.671875 C 207.953125 425.4375 207.765625 427.78125 207.160156 429.710938 C 206.929688 430.351562 206.65625 430.933594 206.34375 431.457031 C 206.296875 431.523438 206.253906 431.589844 206.214844 431.652344 C 206.070312 431.878906 205.941406 432.097656 205.824219 432.300781 C 204.527344 434.085938 200.789062 435.035156 194.601562 435.148438 C 189.164062 435.207031 185.65625 434.949219 184.070312 434.371094 C 176.074219 442.113281 171.570312 446.359375 170.566406 447.105469 C 170.21875 447.394531 168.851562 447.292969 166.464844 446.808594 C 166.320312 445.738281 166.394531 444.445312 166.679688 442.917969 C 166.796875 442.140625 166.964844 441.464844 167.199219 440.890625 C 176.320312 428.3125 183.972656 420 190.15625 415.9375 C 193.0625 414.152344 195.722656 413.160156 198.140625 412.960938 C 198.457031 412.960938 198.746094 412.960938 199.003906 412.960938 C 200.558594 412.980469 202.027344 413.339844 203.40625 414.039062 Z M 55.480469 436.25 C 57.074219 439.863281 59.496094 441.664062 62.75 441.664062 C 64.394531 441.664062 66.039062 439.972656 67.691406 436.59375 C 67.9375 438.035156 68.0625 439.726562 68.0625 441.664062 C 68.0625 443.78125 67.800781 445.675781 67.285156 447.34375 C 65.886719 446.390625 64.191406 445.203125 62.191406 443.78125 C 58.886719 441.851562 56.695312 441.527344 55.609375 442.8125 C 55.140625 441.410156 54.902344 440.820312 54.898438 441.042969 C 54.898438 439.214844 55.089844 437.613281 55.480469 436.25 Z M 107.722656 439.144531 C 110.390625 441.894531 113.914062 442.996094 118.296875 442.445312 C 118.507812 442.230469 118.699219 442.015625 118.859375 441.792969 C 119.464844 443.550781 119.765625 445.359375 119.765625 447.238281 C 119.765625 447.808594 119.691406 448.359375 119.546875 448.875 C 117.910156 447.820312 115.453125 446.117188 112.167969 443.78125 C 110.625 442.878906 109.320312 442.324219 108.265625 442.121094 C 107.902344 440.199219 107.722656 439.3125 107.722656 439.464844 C 107.722656 439.355469 107.722656 439.246094 107.722656 439.144531 Z M 247.839844 366.855469 C 247.65625 366.011719 247.460938 365.332031 247.257812 364.828125 C 246.566406 363.1875 245.933594 362.023438 245.359375 361.332031 C 246.332031 361.449219 247.339844 361.480469 248.378906 361.417969 C 248.832031 361.394531 249.292969 361.355469 249.761719 361.289062 C 253.769531 360.792969 257.0625 359.664062 259.644531 357.902344 C 261.265625 356.789062 262.601562 355.429688 263.65625 353.824219 C 264.144531 354.425781 264.621094 355.058594 265.082031 355.722656 C 265.492188 356.289062 266.019531 357.261719 266.65625 358.636719 C 266.566406 358.566406 266.46875 358.503906 266.375 358.4375 C 262.894531 360.511719 258.523438 362.527344 253.257812 364.480469 C 251.214844 365.226562 249.410156 366.015625 247.839844 366.855469 Z M 473.386719 506.117188 C 472.726562 505.933594 472.042969 505.742188 471.335938 505.554688 C 470.417969 505.238281 467.152344 503.0625 461.539062 499.039062 C 459.679688 497.957031 458.164062 497.371094 456.988281 497.289062 C 456.953125 497.1875 456.914062 497.074219 456.878906 496.964844 C 455.621094 493.207031 455.003906 489.753906 455.027344 486.601562 C 456.378906 485.964844 458.570312 484.882812 461.585938 483.367188 C 462.769531 482.761719 463.820312 482.222656 464.734375 481.746094 C 465.058594 482.292969 465.390625 482.878906 465.730469 483.496094 C 467.796875 487.382812 469.65625 491.785156 471.292969 496.707031 C 472.824219 501.3125 473.515625 504.445312 473.386719 506.117188 Z M 470.28125 426.992188 C 470.785156 429.511719 471.035156 432.375 471.035156 435.582031 C 471.035156 437.082031 470.660156 438.730469 469.914062 440.523438 C 466.539062 440.699219 463.289062 440.941406 460.179688 441.234375 C 458.753906 436.050781 457.476562 431.390625 456.339844 427.246094 L 470.21875 427.246094 C 470.242188 427.164062 470.261719 427.082031 470.28125 426.992188 Z M 487.996094 427.246094 L 504.59375 427.246094 C 505.359375 429.894531 505.859375 432.570312 506.078125 435.28125 C 506.078125 436.980469 505.855469 438.765625 505.390625 440.628906 C 501.210938 440.878906 497.238281 441.234375 493.480469 441.6875 C 492.703125 440.625 491.957031 439.382812 491.234375 437.957031 C 489.078125 433.609375 487.996094 430.484375 487.996094 428.585938 C 487.996094 428.113281 487.996094 427.671875 487.996094 427.246094 Z M 456.40625 117.4375 C 457.066406 114.441406 457.15625 112.039062 456.667969 110.230469 C 456.175781 108.414062 455.671875 107.132812 455.15625 106.386719 C 456.566406 106.675781 458.074219 106.816406 459.6875 106.816406 C 466.621094 106.816406 471.785156 104.832031 475.179688 100.859375 C 475.613281 101.519531 476.027344 102.242188 476.429688 103.015625 C 477.351562 104.800781 478.117188 106.699219 478.71875 108.714844 C 476.015625 107.390625 473.136719 107.03125 470.089844 107.636719 C 465.164062 108.554688 460.605469 111.824219 456.40625 117.4375 " fill-opacity="1" fill-rule="evenodd"/><path fill="#f1a20f" d="M 301.355469 466.8125 C 290.109375 465.046875 278.429688 462.921875 266.332031 460.445312 C 254.324219 457.941406 245.175781 455.667969 238.882812 453.625 C 238.738281 453.585938 238.59375 453.542969 238.453125 453.496094 C 238.535156 453.207031 238.617188 452.921875 238.6875 452.652344 C 239.371094 450.25 239.902344 448.355469 240.289062 446.976562 C 243.917969 446.53125 247.546875 446.101562 251.183594 445.679688 C 266 444.617188 273.453125 441.683594 273.539062 436.875 C 274.546875 430.777344 274.789062 424.488281 274.273438 418.011719 C 273.8125 412.253906 273.355469 406.574219 272.894531 400.960938 C 272.492188 396.066406 271.558594 391.289062 270.089844 386.628906 C 268.144531 380.640625 264.464844 376.355469 259.039062 373.761719 C 259.027344 373.757812 259.011719 373.75 258.996094 373.746094 C 258.332031 373.421875 257.640625 373.125 256.925781 372.855469 C 253.800781 371.652344 251.160156 372.179688 249.003906 374.433594 C 248.785156 374.660156 248.578125 374.894531 248.378906 375.148438 C 248.1875 375.402344 248.003906 375.660156 247.839844 375.921875 C 246.324219 378.253906 245.6875 380.945312 245.917969 383.996094 C 246.277344 389.511719 246.546875 394.363281 246.71875 398.542969 C 246.8125 401.042969 246.878906 403.300781 246.910156 405.320312 C 247 410.671875 246.84375 415.289062 246.433594 419.175781 C 246.402344 419.433594 246.351562 419.683594 246.289062 419.933594 C 246.253906 420.054688 246.21875 420.164062 246.175781 420.273438 C 245.457031 422.671875 243.363281 424.730469 239.898438 426.453125 C 239.792969 425.164062 239.679688 423.808594 239.554688 422.390625 C 239.269531 419 238.949219 415.238281 238.582031 411.105469 C 238.289062 407.875 238.023438 404.890625 237.800781 402.148438 C 236.796875 389.1875 236.699219 381.570312 237.503906 379.292969 C 238.425781 376.53125 239.976562 373.851562 242.164062 371.261719 C 243.457031 369.667969 245.34375 368.199219 247.839844 366.855469 C 249.410156 366.015625 251.214844 365.226562 253.257812 364.480469 C 258.523438 362.527344 262.894531 360.511719 266.375 358.4375 C 266.46875 358.503906 266.566406 358.566406 266.65625 358.636719 C 272.144531 362.355469 276.726562 366.625 280.402344 371.433594 C 283.253906 375.230469 286.015625 380.023438 288.6875 385.808594 C 292.402344 393.921875 295.25 402.972656 297.234375 412.960938 C 299.078125 422.285156 300.457031 430.648438 301.378906 438.039062 C 302.269531 445.433594 302.71875 451.148438 302.71875 455.179688 C 302.6875 459.234375 302.355469 463.132812 301.722656 466.875 C 301.605469 466.855469 301.480469 466.835938 301.355469 466.8125 Z M 478.71875 108.714844 C 485.164062 111.738281 490.804688 119.910156 495.636719 133.234375 C 496.671875 136.027344 497.621094 138.964844 498.488281 142.039062 C 499.03125 143.136719 499.390625 144.503906 499.5625 146.144531 C 504.746094 166.257812 507.332031 192.402344 507.332031 224.578125 C 507.332031 227.800781 506.847656 230.710938 505.867188 233.296875 L 432.925781 233.296875 C 432.925781 232.636719 432.925781 231.929688 432.925781 231.179688 C 432.925781 228.59375 432.9375 226.042969 432.972656 223.539062 C 433.257812 206.015625 434.496094 190.101562 436.679688 175.796875 C 436.882812 174.417969 437.101562 173.0625 437.332031 171.742188 C 444.347656 167.082031 451.628906 160.820312 459.171875 152.960938 C 464.464844 147.4375 469.914062 141.007812 475.527344 133.664062 C 479.582031 128.398438 481.609375 125.851562 481.609375 126.027344 C 481.609375 108.929688 472.894531 106.488281 455.457031 118.6875 C 455.769531 118.257812 456.089844 117.835938 456.40625 117.4375 C 460.605469 111.824219 465.164062 108.554688 470.089844 107.636719 C 473.136719 107.03125 476.015625 107.390625 478.71875 108.714844 " fill-opacity="1" fill-rule="evenodd"/><path fill="#d5dff4" d="M 420.800781 486.777344 L 304.785156 486.777344 L 304.785156 481.078125 L 420.800781 481.078125 Z M 420.800781 493.984375 L 420.800781 499.6875 L 304.785156 499.6875 L 304.785156 493.984375 L 420.800781 493.984375 " fill-opacity="1" fill-rule="evenodd"/><path fill="#cd6d49" d="M 363.117188 329.929688 C 363.554688 331.074219 364.0625 332.25 364.648438 333.445312 C 366.808594 337.964844 367.886719 340.699219 367.886719 341.648438 C 367.886719 343.230469 367.394531 344.699219 366.417969 346.054688 C 365.152344 347.835938 363.300781 348.726562 360.851562 348.726562 C 356.964844 348.726562 352.332031 344.78125 346.953125 336.902344 C 344.21875 332.296875 342.273438 328.996094 341.128906 327.015625 C 341.183594 327.015625 341.242188 327.015625 341.300781 327.015625 C 346.9375 322.097656 350.191406 316.125 351.054688 309.097656 C 351.265625 309.386719 351.484375 309.671875 351.699219 309.960938 C 355.304688 314.8125 358.695312 317.742188 361.867188 318.746094 C 361.535156 319.871094 361.367188 320.679688 361.367188 321.1875 C 361.367188 323.902344 361.949219 326.816406 363.117188 329.929688 " fill-opacity="1" fill-rule="evenodd"/><path fill="#9cc1e9" d="M 391.324219 397.246094 L 412.878906 387.339844 L 427.988281 380.410156 L 435.191406 377.109375 L 438.691406 375.492188 L 445.699219 299.816406 C 445.84375 298.488281 446.347656 297.351562 447.210938 296.40625 C 447.402344 296.214844 447.597656 296.03125 447.816406 295.84375 C 449.082031 294.871094 450.507812 294.441406 452.089844 294.550781 C 453.730469 294.695312 455.054688 295.402344 456.0625 296.667969 C 457.066406 297.878906 457.496094 299.285156 457.355469 300.898438 L 453.921875 337.632812 L 449.972656 379.980469 C 449.832031 381.59375 449.125 382.902344 447.863281 383.90625 C 447.359375 384.320312 446.824219 384.632812 446.265625 384.859375 L 436.808594 389.199219 L 436.53125 389.328125 L 420.347656 396.75 L 374.101562 418.011719 C 372.605469 418.671875 371.109375 418.730469 369.613281 418.183594 C 368.625 417.785156 367.820312 417.203125 367.199219 416.4375 C 366.875 416.046875 366.601562 415.609375 366.375 415.121094 C 365.6875 413.621094 365.640625 412.125 366.246094 410.628906 C 366.792969 409.132812 367.800781 408.050781 369.265625 407.390625 L 373.0625 405.644531 L 391.324219 397.246094 " fill-opacity="1" fill-rule="evenodd"/></svg>