<svg width="241" height="113" viewBox="0 0 241 113" fill="none" xmlns="http://www.w3.org/2000/svg">
<path d="M48.0682 93V23.1818H76.0227C81.1591 23.1818 85.4432 23.9432 88.875 25.4659C92.3068 26.9886 94.8864 29.1023 96.6136 31.8068C98.3409 34.4886 99.2045 37.5795 99.2045 41.0795C99.2045 43.8068 98.6591 46.2045 97.5682 48.2727C96.4773 50.3182 94.9773 52 93.0682 53.3182C91.1818 54.6136 89.0227 55.5341 86.5909 56.0795V56.7614C89.25 56.875 91.7386 57.625 94.0568 59.0114C96.3977 60.3977 98.2955 62.3409 99.75 64.8409C101.205 67.3182 101.932 70.2727 101.932 73.7045C101.932 77.4091 101.011 80.7159 99.1705 83.625C97.3523 86.5114 94.6591 88.7955 91.0909 90.4773C87.5227 92.1591 83.125 93 77.8977 93H48.0682ZM62.8295 80.9318H74.8636C78.9773 80.9318 81.9773 80.1477 83.8636 78.5795C85.75 76.9886 86.6932 74.875 86.6932 72.2386C86.6932 70.3068 86.2273 68.6023 85.2955 67.125C84.3636 65.6477 83.0341 64.4886 81.3068 63.6477C79.6023 62.8068 77.5682 62.3864 75.2045 62.3864H62.8295V80.9318ZM62.8295 52.3977H73.7727C75.7955 52.3977 77.5909 52.0455 79.1591 51.3409C80.75 50.6136 82 49.5909 82.9091 48.2727C83.8409 46.9545 84.3068 45.375 84.3068 43.5341C84.3068 41.0114 83.4091 38.9773 81.6136 37.4318C79.8409 35.8864 77.3182 35.1136 74.0455 35.1136H62.8295V52.3977ZM149.412 43.2614C149.139 40.5114 147.969 38.375 145.901 36.8523C143.832 35.3295 141.026 34.5682 137.48 34.5682C135.071 34.5682 133.037 34.9091 131.378 35.5909C129.719 36.25 128.446 37.1705 127.56 38.3523C126.696 39.5341 126.264 40.875 126.264 42.375C126.219 43.625 126.48 44.7159 127.048 45.6477C127.639 46.5795 128.446 47.3864 129.469 48.0682C130.491 48.7273 131.673 49.3068 133.014 49.8068C134.355 50.2841 135.787 50.6932 137.31 51.0341L143.582 52.5341C146.628 53.2159 149.423 54.125 151.969 55.2614C154.514 56.3977 156.719 57.7955 158.582 59.4545C160.446 61.1136 161.889 63.0682 162.912 65.3182C163.957 67.5682 164.491 70.1477 164.514 73.0568C164.491 77.3295 163.401 81.0341 161.241 84.1705C159.105 87.2841 156.014 89.7045 151.969 91.4318C147.946 93.1364 143.094 93.9886 137.412 93.9886C131.776 93.9886 126.866 93.125 122.685 91.3977C118.526 89.6705 115.276 87.1136 112.935 83.7273C110.616 80.3182 109.401 76.1023 109.287 71.0795H123.571C123.73 73.4205 124.401 75.375 125.582 76.9432C126.787 78.4886 128.389 79.6591 130.389 80.4545C132.412 81.2273 134.696 81.6136 137.241 81.6136C139.741 81.6136 141.912 81.25 143.753 80.5227C145.616 79.7955 147.06 78.7841 148.082 77.4886C149.105 76.1932 149.616 74.7045 149.616 73.0227C149.616 71.4545 149.151 70.1364 148.219 69.0682C147.31 68 145.969 67.0909 144.196 66.3409C142.446 65.5909 140.298 64.9091 137.753 64.2955L130.151 62.3864C124.264 60.9545 119.616 58.7159 116.207 55.6705C112.798 52.625 111.105 48.5227 111.128 43.3636C111.105 39.1364 112.23 35.4432 114.503 32.2841C116.798 29.125 119.946 26.6591 123.946 24.8864C127.946 23.1136 132.491 22.2273 137.582 22.2273C142.764 22.2273 147.287 23.1136 151.151 24.8864C155.037 26.6591 158.06 29.125 160.219 32.2841C162.378 35.4432 163.491 39.1023 163.56 43.2614H149.412ZM184.884 93H169.065L193.168 23.1818H212.19L236.259 93H220.44L202.952 39.1364H202.406L184.884 93ZM183.895 65.5568H221.259V77.0795H183.895V65.5568Z" fill="#2359E5"/>
<path d="M62.9318 93V23.1818H35.3864C30.1136 23.1818 25.6136 24.125 21.8864 26.0114C18.1364 27.875 15.2841 30.5227 13.3295 33.9545C11.3523 37.3636 10.3636 41.375 10.3636 45.9886C10.3636 50.625 11.3636 54.6136 13.3636 57.9545C15.3636 61.2727 18.2614 63.8182 22.0568 65.5909C25.8295 67.3636 30.3977 68.25 35.7614 68.25H54.2045V56.3864H38.1477C35.3295 56.3864 32.9886 56 31.125 55.2273C29.2614 54.4545 27.875 53.2955 26.9659 51.75C26.0341 50.2045 25.5682 48.2841 25.5682 45.9886C25.5682 43.6705 26.0341 41.7159 26.9659 40.125C27.875 38.5341 29.2727 37.3295 31.1591 36.5114C33.0227 35.6705 35.375 35.25 38.2159 35.25H48.1705V93H62.9318ZM25.2273 61.2273L7.875 93H24.1705L41.1477 61.2273H25.2273Z" fill="#2359E5"/>
</svg>
